<svg aria-hidden="true" style="position: absolute; width: 0; height: 0; overflow: hidden;" version="1.1" xmlns="http://www.w3.org/2000/svg" xmlns:xlink="http://www.w3.org/1999/xlink">
<defs>
<symbol id="icon-calculator" viewBox="0 0 35 32">
<path d="M15.441 18.253c0 0.292 0.256 0.529 0.572 0.529s0.572-0.237 0.572-0.529c0-1.75-1.75-3.197-4.003-3.409v-0.559c0-0.292-0.256-0.529-0.572-0.529s-0.572 0.237-0.572 0.529v0.559c-2.253 0.212-4.003 1.659-4.003 3.409s1.75 3.197 4.003 3.409v4.755c-1.62-0.189-2.859-1.168-2.859-2.345 0-0.292-0.256-0.529-0.572-0.529s-0.572 0.237-0.572 0.529c0 1.75 1.75 3.197 4.003 3.409v0.559c0 0.292 0.256 0.529 0.572 0.529s0.572-0.237 0.572-0.529v-0.559c2.253-0.212 4.003-1.659 4.003-3.409s-1.75-3.197-4.003-3.409v-4.755c1.62 0.189 2.859 1.168 2.859 2.345zM8.578 18.253c0-1.177 1.239-2.155 2.859-2.345v4.69c-1.62-0.189-2.859-1.168-2.859-2.345zM15.441 24.073c0 1.177-1.239 2.155-2.859 2.345v-4.69c1.62 0.189 2.859 1.168 2.859 2.345z"></path>
<path d="M2.059 15.964c-0.286-0.123-0.626-0.008-0.759 0.257-0.861 1.714-1.304 3.581-1.299 5.471 0 6.67 4.040 10.052 12.009 10.052 1.61 0.023 3.217-0.148 4.779-0.509 0.305-0.075 0.487-0.365 0.406-0.647s-0.394-0.45-0.7-0.375c-1.467 0.335-2.974 0.494-4.485 0.474-7.311 0-10.866-2.942-10.866-8.994-0.010-1.737 0.397-3.453 1.194-5.026 0.132-0.265 0.008-0.579-0.279-0.702z"></path>
<path d="M32.597 13.227h-12.581c-0.948 0-1.716 0.711-1.716 1.587v15.343c0 0.877 0.768 1.587 1.716 1.587h12.581c0.947 0 1.716-0.711 1.716-1.587v-15.343c0-0.877-0.768-1.587-1.716-1.587zM33.169 30.157c0 0.292-0.256 0.529-0.572 0.529h-12.581c-0.316 0-0.572-0.237-0.572-0.529v-15.343c0-0.292 0.256-0.529 0.572-0.529h12.581c0.316 0 0.572 0.237 0.572 0.529v15.343z"></path>
<path d="M22.303 20.105h8.006c0.632 0 1.144-0.474 1.144-1.058v-2.116c0-0.584-0.512-1.058-1.144-1.058h-8.006c-0.632 0-1.144 0.474-1.144 1.058v2.116c0 0.584 0.512 1.058 1.144 1.058zM22.303 16.93h8.006v2.116h-8.006v-2.116z"></path>
<path d="M23.447 21.692h-1.716c-0.316 0-0.572 0.237-0.572 0.529s0.256 0.529 0.572 0.529h1.716c0.316 0 0.572-0.237 0.572-0.529s-0.256-0.529-0.572-0.529z"></path>
<path d="M23.447 23.808h-1.716c-0.316 0-0.572 0.237-0.572 0.529s0.256 0.529 0.572 0.529h1.716c0.316 0 0.572-0.237 0.572-0.529s-0.256-0.529-0.572-0.529z"></path>
<path d="M23.447 25.924h-1.716c-0.316 0-0.572 0.237-0.572 0.529s0.256 0.529 0.572 0.529h1.716c0.316 0 0.572-0.237 0.572-0.529s-0.256-0.529-0.572-0.529z"></path>
<path d="M23.447 28.041h-1.716c-0.316 0-0.572 0.237-0.572 0.529s0.256 0.529 0.572 0.529h1.716c0.316 0 0.572-0.237 0.572-0.529s-0.256-0.529-0.572-0.529z"></path>
<path d="M27.45 21.692h-1.716c-0.316 0-0.572 0.237-0.572 0.529s0.256 0.529 0.572 0.529h1.716c0.316 0 0.572-0.237 0.572-0.529s-0.256-0.529-0.572-0.529z"></path>
<path d="M27.45 23.808h-1.716c-0.316 0-0.572 0.237-0.572 0.529s0.256 0.529 0.572 0.529h1.716c0.316 0 0.572-0.237 0.572-0.529s-0.256-0.529-0.572-0.529z"></path>
<path d="M27.45 25.924h-1.716c-0.316 0-0.572 0.237-0.572 0.529s0.256 0.529 0.572 0.529h1.716c0.316 0 0.572-0.237 0.572-0.529s-0.256-0.529-0.572-0.529z"></path>
<path d="M27.45 28.041h-1.716c-0.316 0-0.572 0.237-0.572 0.529s0.256 0.529 0.572 0.529h1.716c0.316 0 0.572-0.237 0.572-0.529s-0.256-0.529-0.572-0.529z"></path>
<path d="M31.453 21.692h-1.716c-0.316 0-0.572 0.237-0.572 0.529s0.256 0.529 0.572 0.529h1.716c0.316 0 0.572-0.237 0.572-0.529s-0.256-0.529-0.572-0.529z"></path>
<path d="M31.453 23.808h-1.716c-0.316 0-0.572 0.237-0.572 0.529s0.256 0.529 0.572 0.529h1.716c0.316 0 0.572-0.237 0.572-0.529s-0.256-0.529-0.572-0.529z"></path>
<path d="M31.453 25.924h-1.716c-0.316 0-0.572 0.237-0.572 0.529s0.256 0.529 0.572 0.529h1.716c0.316 0 0.572-0.237 0.572-0.529s-0.256-0.529-0.572-0.529z"></path>
<path d="M31.453 28.041h-1.716c-0.316 0-0.572 0.237-0.572 0.529s0.256 0.529 0.572 0.529h1.716c0.316 0 0.572-0.237 0.572-0.529s-0.256-0.529-0.572-0.529z"></path>
<path d="M3.617 0.668c-1.506 1.276 1.14 5.212 2.699 7.268h-0.311c-0.531-0.002-1.041 0.193-1.417 0.541-0.374 0.349-0.584 0.82-0.585 1.311 0.002 0.659 0.385 1.267 1.003 1.595-0.668 0.653-1.296 1.339-1.884 2.055-0.189 0.234-0.138 0.565 0.114 0.741s0.611 0.128 0.801-0.106c0.706-0.855 1.47-1.668 2.288-2.434h11.689c0.715 0 1.376-0.353 1.733-0.926s0.358-1.279 0-1.852c-0.358-0.573-1.018-0.926-1.733-0.926h-0.311c1.558-2.055 4.204-5.991 2.699-7.268-0.692-0.586-1.498-0.159-2.209 0.215-0.646 0.41-1.399 0.652-2.181 0.704-0.62-0.001-1.212-0.243-1.63-0.667-0.626-0.589-1.481-0.92-2.373-0.92s-1.748 0.332-2.373 0.92c-0.419 0.424-1.012 0.666-1.633 0.667-0.781-0.051-1.533-0.294-2.179-0.704-0.71-0.375-1.516-0.801-2.206-0.215zM18.622 9.226c0.246 0.227 0.32 0.569 0.187 0.866s-0.447 0.49-0.794 0.489h-12.009c-0.474 0-0.858-0.355-0.858-0.794s0.384-0.794 0.858-0.794h12.009c0.228 0 0.446 0.083 0.608 0.232zM8.002 2.645c0.893-0 1.748-0.332 2.374-0.921 0.418-0.424 1.009-0.666 1.63-0.666s1.212 0.242 1.63 0.666c0.627 0.59 1.483 0.921 2.377 0.921 0.982-0.048 1.932-0.339 2.75-0.843 0.261-0.171 0.556-0.291 0.869-0.354 0.587 0.497-0.964 3.497-3.335 6.488h-1.427v-2.645c0-0.292-0.256-0.529-0.572-0.529s-0.572 0.237-0.572 0.529v2.645h-3.431v-2.645c0-0.292-0.256-0.529-0.572-0.529s-0.572 0.237-0.572 0.529v2.645h-1.425c-2.371-2.991-3.922-5.991-3.327-6.496 0.306 0.076 0.596 0.198 0.858 0.362 0.817 0.504 1.766 0.796 2.747 0.843z"></path>
</symbol>
<symbol id="icon-facebook" viewBox="0 0 32 32">
<path fill="#f0db1d" style="fill: var(--color1, #f0db1d)" d="M16 0.067c-8.837 0-16 7.164-16 16 0 7.925 5.768 14.489 13.332 15.76v-12.422h-3.86v-4.47h3.86v-3.296c0-3.824 2.336-5.908 5.748-5.908 1.634 0 3.039 0.122 3.446 0.175v3.997l-2.367 0.001c-1.855 0-2.213 0.881-2.213 2.175v2.853h4.427l-0.577 4.47h-3.849v12.531c7.916-0.963 14.054-7.694 14.054-15.871 0-8.832-7.164-15.996-16-15.996z"></path>
</symbol>
<symbol id="icon-gear" viewBox="0 0 31 32">
<path d="M18.788 4.264c-1.177 0-2.316 0.255-3.383 0.758-0.23 0.108-0.33 0.387-0.225 0.622s0.378 0.338 0.608 0.23c0.946-0.446 1.955-0.672 3-0.672 3.934 0 7.135 3.265 7.135 7.278 0 3.265-2.117 6.035-5.025 6.955v-2.769c1.72-0.789 2.854-2.552 2.854-4.487 0-1.623-0.79-3.142-2.112-4.063-0.195-0.136-0.787-0.548-1.284-0.255-0.486 0.287-0.41 1.338-0.409 1.354v2.672c0 0.672-0.507 1.236-1.16 1.296-0.653-0.060-1.16-0.624-1.16-1.296v-2.671c0-0.017 0.077-1.069-0.409-1.356-0.497-0.293-1.089 0.12-1.283 0.255-1.323 0.92-2.112 2.438-2.112 4.063 0 1.935 1.135 3.698 2.854 4.487v2.769c-2.907-0.92-5.025-3.69-5.025-6.955 0-2.095 0.887-4.090 2.433-5.473 0.191-0.17 0.21-0.467 0.043-0.661s-0.456-0.215-0.647-0.044c-1.745 1.561-2.746 3.813-2.746 6.179 0 4.531 3.612 8.218 8.052 8.218s8.052-3.686 8.052-8.218c0-4.53-3.612-8.216-8.052-8.216zM17.594 19.658v-3.306c0-0.196-0.119-0.372-0.299-0.44-1.528-0.578-2.555-2.078-2.555-3.733 0-1.314 0.64-2.543 1.711-3.288 0.123-0.086 0.213-0.134 0.274-0.161l-0.014 3.157c0 1.175 0.899 2.156 2.047 2.234 0.020 0.001 0.041 0.001 0.061 0 1.148-0.078 2.047-1.060 2.047-2.234l-0.014-3.157c0.061 0.027 0.151 0.075 0.274 0.161 1.072 0.746 1.711 1.975 1.711 3.288 0 1.655-1.027 3.155-2.555 3.733-0.18 0.068-0.299 0.243-0.299 0.44v3.306c-0.388 0.067-0.787 0.102-1.194 0.102s-0.805-0.035-1.194-0.102z"></path>
<path d="M29.628 9.465h-0.727c-0.213-0.746-0.506-1.465-0.874-2.147l0.517-0.526c0.541-0.554 0.541-1.456-0.001-2.011l-2.21-2.253c-0.543-0.554-1.427-0.554-1.97 0l-0.515 0.526c-0.671-0.376-1.377-0.674-2.106-0.891v-0.742c-0-0.784-0.625-1.421-1.393-1.421h-3.124c-0.768 0-1.394 0.637-1.394 1.421v0.743c-0.732 0.218-1.437 0.516-2.104 0.89l-0.515-0.526c-0.543-0.554-1.427-0.554-1.97 0l-2.21 2.253c-0.262 0.268-0.407 0.625-0.407 1.006s0.145 0.738 0.407 1.006l0.515 0.524c-0.367 0.683-0.659 1.403-0.872 2.147h-0.727c-0.769 0-1.394 0.638-1.394 1.421v3.188c0 0.784 0.625 1.423 1.394 1.423h0.727c0.213 0.744 0.505 1.463 0.872 2.146l-0.515 0.525c-0.263 0.268-0.407 0.625-0.407 1.006s0.145 0.738 0.407 1.006l1.051 1.071c-0.504 0.126-1.066 0.288-1.72 0.493l-3.245 1.022c-0.19-0.39-0.583-0.659-1.037-0.659h-2.648c-0.639 0-1.159 0.532-1.159 1.186v6.623c0 0.654 0.52 1.186 1.159 1.186h2.648c0.498 0 0.922-0.323 1.086-0.775l2.841 0.503c0.026 0.004 0.053 0.007 0.079 0.007 0.219 0 0.413-0.161 0.451-0.389 0.043-0.255-0.124-0.497-0.373-0.542l-2.924-0.518v-5.679l3.392-1.069c0.887-0.279 1.597-0.473 2.218-0.607 0.407-0.087 0.776-0.149 1.131-0.192 0.189-0.023 0.375-0.041 0.561-0.054 0.383-0.027 0.765-0.036 1.18-0.036h1.396c0.845 0.158 1.241 0.827 1.194 1.414-0.022 0.28-0.15 0.571-0.424 0.776-0.222 0.167-0.54 0.276-0.974 0.276h-1.087c-0.881-0.058-1.441 0.578-1.541 1.24-0.097 0.639 0.243 1.433 1.215 1.668 0.010 0.003 0.020 0.004 0.030 0.006l3.467 0.591c0.013 0.002 0.027 0.004 0.040 0.005 0.205 0.016 0.404 0.040 0.596 0.064 0.594 0.072 1.154 0.141 1.83-0.021l6.192-1.477c0.002-0.001 0.005-0.001 0.007-0.001 0.708-0.18 1.065 0.149 1.163 0.518 0.105 0.391-0.063 0.897-0.678 1.084l-9.715 2.962c-1.073 0.327-1.964 0.183-2.297 0.106-0.008-0.002-0.015-0.003-0.023-0.004l-3.712-0.657c-0.249-0.044-0.487 0.127-0.53 0.382s0.123 0.498 0.373 0.542l3.701 0.655c0.215 0.049 0.609 0.119 1.118 0.119 0.465 0 1.026-0.058 1.632-0.242l9.715-2.963c1.139-0.347 1.52-1.408 1.3-2.229-0.211-0.792-1.011-1.499-2.265-1.183l-6.189 1.476c-0.518 0.124-0.979 0.068-1.512 0.003-0.196-0.024-0.397-0.048-0.614-0.066l-3.431-0.584c-0.361-0.092-0.55-0.319-0.506-0.609 0.037-0.241 0.232-0.473 0.586-0.446 0.012 0.001 0.023 0.001 0.034 0.001h1.103c0.639 0 1.141-0.176 1.512-0.453 0.226 0.163 0.502 0.258 0.799 0.258h3.124c0.768 0 1.393-0.637 1.393-1.421v-0.742c0.732-0.218 1.438-0.517 2.106-0.891l0.515 0.526c0.543 0.554 1.426 0.554 1.97 0l2.21-2.254c0.541-0.554 0.541-1.456-0.001-2.011l-0.516-0.526c0.367-0.681 0.66-1.399 0.874-2.145h0.727c0.768 0 1.394-0.639 1.394-1.423v-3.188c0-0.784-0.625-1.422-1.394-1.422zM4.082 30.166h-2.648c-0.131 0-0.242-0.114-0.242-0.248v-6.623c0-0.134 0.111-0.248 0.242-0.248h2.648c0.134 0 0.242 0.111 0.242 0.248v0.062c-0 0.005-0 0.009 0 0.014v6.547c0 0.137-0.109 0.248-0.242 0.248zM30.105 14.074c0 0.268-0.214 0.486-0.477 0.486h-1.077c-0.209 0-0.392 0.145-0.444 0.352-0.227 0.903-0.578 1.768-1.046 2.568-0.108 0.184-0.079 0.42 0.070 0.572l0.763 0.779c0.185 0.189 0.185 0.497 0.001 0.686l-2.21 2.253c-0.186 0.19-0.488 0.19-0.674 0l-0.762-0.777c-0.149-0.151-0.378-0.181-0.558-0.072-0.785 0.476-1.633 0.835-2.52 1.066-0.204 0.053-0.345 0.24-0.345 0.454v1.1c0 0.267-0.213 0.484-0.476 0.484h-3.124c-0.071 0-0.139-0.016-0.199-0.045 0.114-0.234 0.18-0.486 0.201-0.736 0.081-1.023-0.577-2.184-1.994-2.421-0.024-0.004-0.050-0.006-0.074-0.006h-1.435c-0.903 0-1.661 0.039-2.57 0.204l-1.473-1.502c-0.089-0.091-0.138-0.213-0.138-0.343s0.049-0.252 0.138-0.343l0.762-0.778c0.149-0.151 0.178-0.387 0.070-0.571-0.467-0.805-0.819-1.67-1.044-2.571-0.052-0.207-0.235-0.352-0.444-0.352h-1.077c-0.263 0-0.477-0.218-0.477-0.486v-3.188c0-0.267 0.214-0.484 0.477-0.484h1.077c0.21 0 0.392-0.145 0.444-0.353 0.226-0.901 0.577-1.766 1.044-2.571 0.108-0.184 0.078-0.419-0.070-0.571l-0.762-0.777c-0.089-0.091-0.138-0.213-0.138-0.343s0.049-0.252 0.138-0.343l2.21-2.253c0.186-0.189 0.488-0.189 0.674 0l0.763 0.778c0.148 0.151 0.378 0.181 0.557 0.071 0.785-0.476 1.632-0.834 2.518-1.066 0.203-0.053 0.345-0.24 0.345-0.454v-1.101c0-0.267 0.214-0.484 0.477-0.484h3.124c0.262 0 0.476 0.217 0.476 0.484v1.101c0 0.214 0.142 0.402 0.346 0.454 0.881 0.228 1.729 0.586 2.519 1.065 0.18 0.109 0.41 0.080 0.558-0.071l0.762-0.778c0.186-0.189 0.488-0.189 0.675 0l2.209 2.252c0.185 0.189 0.185 0.497 0.001 0.686l-0.764 0.778c-0.149 0.152-0.178 0.388-0.070 0.572 0.468 0.803 0.82 1.668 1.046 2.571 0.052 0.207 0.235 0.352 0.444 0.352h1.077c0.263 0 0.477 0.217 0.477 0.484v3.188z"></path>
</symbol>
<symbol id="icon-instagram" viewBox="0 0 32 32">
<path fill="#f0db1d" style="fill: var(--color1, #f0db1d)" d="M19.063 16c0 1.691-1.371 3.063-3.063 3.063s-3.063-1.371-3.063-3.063c0-1.691 1.371-3.063 3.063-3.063s3.063 1.371 3.063 3.063z"></path>
<path fill="#f0db1d" style="fill: var(--color1, #f0db1d)" d="M23.162 10.582c-0.147-0.399-0.382-0.76-0.687-1.056-0.296-0.305-0.657-0.54-1.056-0.687-0.324-0.126-0.81-0.275-1.706-0.316-0.969-0.044-1.26-0.054-3.713-0.054s-2.744 0.009-3.713 0.053c-0.896 0.041-1.382 0.191-1.706 0.316-0.399 0.147-0.76 0.382-1.056 0.687-0.305 0.296-0.54 0.657-0.688 1.056-0.126 0.324-0.275 0.81-0.316 1.706-0.044 0.969-0.054 1.259-0.054 3.713s0.010 2.744 0.054 3.713c0.041 0.896 0.19 1.382 0.316 1.706 0.147 0.399 0.382 0.76 0.687 1.056 0.296 0.305 0.657 0.54 1.056 0.687 0.324 0.126 0.81 0.276 1.706 0.316 0.969 0.044 1.259 0.053 3.712 0.053s2.744-0.009 3.713-0.053c0.896-0.041 1.382-0.19 1.706-0.316 0.801-0.309 1.435-0.942 1.744-1.744 0.126-0.324 0.275-0.81 0.316-1.706 0.044-0.969 0.053-1.26 0.053-3.713s-0.009-2.744-0.053-3.713c-0.041-0.896-0.19-1.382-0.316-1.706zM16 20.718c-2.606 0-4.718-2.112-4.718-4.718s2.112-4.718 4.718-4.718c2.605 0 4.718 2.112 4.718 4.718s-2.112 4.718-4.718 4.718zM20.904 12.198c-0.609 0-1.103-0.494-1.103-1.103s0.494-1.103 1.103-1.103c0.609 0 1.103 0.494 1.103 1.103s-0.494 1.103-1.103 1.103z"></path>
<path fill="#f0db1d" style="fill: var(--color1, #f0db1d)" d="M16 0c-8.835 0-16 7.165-16 16s7.165 16 16 16c8.835 0 16-7.165 16-16s-7.165-16-16-16zM25.132 19.788c-0.044 0.978-0.2 1.646-0.427 2.23-0.477 1.234-1.453 2.21-2.687 2.687-0.584 0.227-1.252 0.382-2.23 0.427-0.98 0.045-1.293 0.055-3.788 0.055s-2.808-0.011-3.788-0.055c-0.978-0.045-1.646-0.2-2.23-0.427-0.613-0.231-1.168-0.592-1.627-1.060-0.467-0.459-0.829-1.014-1.060-1.627-0.227-0.584-0.383-1.252-0.427-2.23-0.045-0.98-0.056-1.293-0.056-3.788s0.011-2.808 0.055-3.788c0.044-0.978 0.2-1.646 0.427-2.23 0.231-0.613 0.593-1.168 1.060-1.627 0.459-0.468 1.014-0.829 1.627-1.060 0.584-0.227 1.252-0.382 2.23-0.427 0.98-0.045 1.293-0.055 3.788-0.055s2.808 0.011 3.788 0.056c0.978 0.044 1.646 0.2 2.23 0.426 0.613 0.231 1.168 0.593 1.627 1.060 0.467 0.459 0.829 1.014 1.060 1.627 0.227 0.584 0.383 1.252 0.427 2.23 0.045 0.98 0.055 1.293 0.055 3.788s-0.011 2.808-0.055 3.788z"></path>
</symbol>
<symbol id="icon-linkedin" viewBox="0 0 32 32">
<path fill="#f0db1d" style="fill: var(--color1, #f0db1d)" d="M16 0c-8.835 0-16 7.165-16 16s7.165 16 16 16c8.835 0 16-7.165 16-16s-7.165-16-16-16zM11.351 24.188h-3.897v-11.723h3.897v11.723zM9.402 10.863h-0.025c-1.308 0-2.153-0.9-2.153-2.025 0-1.15 0.872-2.026 2.205-2.026s2.153 0.875 2.179 2.026c0 1.125-0.846 2.025-2.205 2.025zM25.401 24.188h-3.896v-6.272c0-1.576-0.564-2.651-1.974-2.651-1.076 0-1.718 0.725-1.999 1.425-0.103 0.25-0.128 0.601-0.128 0.951v6.547h-3.896c0 0 0.051-10.624 0-11.723h3.896v1.66c0.518-0.799 1.444-1.935 3.512-1.935 2.564 0 4.486 1.676 4.486 5.276v6.722z"></path>
</symbol>
<symbol id="icon-logo" viewBox="0 0 99 32">
<path fill="#16b1bb" style="fill: var(--color2, #16b1bb)" d="M7.564 4.655h16.873c0.964 0 1.745 0.781 1.745 1.745v16.873c0 0.964-0.781 1.745-1.745 1.745h-16.873c-0.964 0-1.745-0.781-1.745-1.745v-16.873c0-0.964 0.781-1.745 1.745-1.745z"></path>
<path fill="#fff" style="fill: var(--color3, #fff)" d="M9.338 11.636h2.889c0.669 0 1.263 0.125 1.78 0.375s0.919 0.605 1.204 1.065c0.285 0.46 0.428 0.998 0.428 1.615s-0.143 1.155-0.428 1.615c-0.285 0.46-0.687 0.815-1.204 1.065s-1.111 0.375-1.78 0.375h-2.889v-6.109zM12.157 16.367c0.524 0 0.943-0.148 1.257-0.445 0.32-0.297 0.48-0.707 0.48-1.231s-0.16-0.934-0.48-1.231c-0.314-0.297-0.733-0.445-1.257-0.445h-1.091v3.351h1.091zM22.361 11.636v6.109h-1.423l-2.697-3.255v3.255h-1.693v-6.109h1.423l2.697 3.255v-3.255h1.693z"></path>
<path fill="#1b393a" style="fill: var(--color4, #1b393a)" d="M34.769 12.876v1.396h-0.541v-0.89h-3.351l-0.006 0.89h-0.541l0.006-1.396h0.198c0.256-0.015 0.436-0.217 0.541-0.605 0.105-0.392 0.169-0.943 0.192-1.652l0.041-1.309h2.863v3.567h0.599zM31.779 10.671c-0.020 0.574-0.066 1.049-0.14 1.425-0.070 0.376-0.184 0.636-0.343 0.78h2.298v-3.060h-1.786l-0.029 0.855zM35.646 10.298h0.559v2.246l1.891-2.246h0.506v3.084h-0.559v-2.246l-1.885 2.246h-0.512v-3.084zM41.479 11.776c0.206 0.054 0.364 0.142 0.477 0.262s0.169 0.27 0.169 0.448c0 0.182-0.062 0.345-0.186 0.489-0.124 0.14-0.297 0.25-0.518 0.332-0.217 0.078-0.462 0.116-0.733 0.116-0.229 0-0.454-0.029-0.675-0.087-0.217-0.062-0.411-0.149-0.582-0.262l0.169-0.425c0.148 0.093 0.316 0.167 0.506 0.221 0.19 0.050 0.382 0.076 0.576 0.076 0.264 0 0.473-0.045 0.628-0.134 0.159-0.093 0.239-0.217 0.239-0.372 0-0.143-0.064-0.254-0.192-0.332-0.124-0.078-0.3-0.116-0.529-0.116h-0.564v-0.401h0.524c0.209 0 0.374-0.037 0.495-0.111s0.18-0.175 0.18-0.303c0-0.14-0.072-0.248-0.215-0.326-0.14-0.078-0.33-0.116-0.57-0.116-0.306 0-0.63 0.079-0.972 0.239l-0.151-0.431c0.376-0.19 0.77-0.285 1.181-0.285 0.248 0 0.471 0.035 0.669 0.105s0.353 0.169 0.465 0.297c0.113 0.128 0.169 0.273 0.169 0.436 0 0.151-0.050 0.287-0.151 0.407s-0.236 0.211-0.407 0.273zM44.248 10.269c0.427 0 0.753 0.105 0.977 0.314 0.229 0.209 0.343 0.522 0.343 0.937v1.862h-0.529v-0.407c-0.093 0.143-0.227 0.254-0.401 0.332-0.171 0.074-0.374 0.111-0.611 0.111-0.345 0-0.623-0.083-0.832-0.25-0.206-0.167-0.308-0.386-0.308-0.657s0.099-0.489 0.297-0.652c0.198-0.167 0.512-0.25 0.943-0.25h0.884v-0.111c0-0.241-0.070-0.425-0.209-0.553s-0.345-0.192-0.617-0.192c-0.182 0-0.361 0.031-0.535 0.093-0.175 0.058-0.322 0.138-0.442 0.239l-0.233-0.419c0.159-0.128 0.349-0.225 0.57-0.291 0.221-0.070 0.456-0.105 0.704-0.105zM44.12 12.986c0.213 0 0.398-0.047 0.553-0.14 0.155-0.097 0.268-0.233 0.337-0.407v-0.431h-0.861c-0.473 0-0.71 0.159-0.71 0.477 0 0.155 0.060 0.277 0.18 0.367s0.287 0.134 0.5 0.134zM46.749 10.298h0.559v2.246l1.891-2.246h0.506v3.084h-0.559v-2.246l-1.885 2.246h-0.512v-3.084zM48.192 9.897c-0.287 0-0.51-0.068-0.669-0.204-0.159-0.14-0.24-0.339-0.244-0.599h0.378c0.004 0.143 0.052 0.26 0.145 0.349 0.097 0.085 0.225 0.128 0.384 0.128s0.287-0.043 0.384-0.128c0.097-0.089 0.148-0.206 0.151-0.349h0.39c-0.004 0.26-0.087 0.46-0.25 0.599-0.163 0.136-0.386 0.204-0.669 0.204zM50.964 10.298h0.559v1.309h1.757v-1.309h0.559v3.084h-0.559v-1.292h-1.757v1.292h-0.559v-3.084zM55.226 12.62c0.109 0 0.198 0.039 0.268 0.116 0.074 0.074 0.111 0.167 0.111 0.279 0 0.058-0.008 0.114-0.023 0.169-0.012 0.054-0.037 0.138-0.076 0.25l-0.273 0.809h-0.367l0.215-0.867c-0.074-0.027-0.134-0.072-0.18-0.134-0.042-0.066-0.064-0.142-0.064-0.227 0-0.116 0.037-0.211 0.111-0.285s0.167-0.111 0.279-0.111zM59.963 10.269c0.298 0 0.566 0.066 0.803 0.198s0.421 0.316 0.553 0.553c0.136 0.237 0.204 0.51 0.204 0.82s-0.068 0.586-0.204 0.826c-0.132 0.237-0.316 0.421-0.553 0.553s-0.504 0.198-0.803 0.198c-0.221 0-0.425-0.043-0.611-0.128-0.182-0.085-0.337-0.209-0.465-0.372v1.594h-0.559v-4.212h0.535v0.489c0.124-0.171 0.281-0.299 0.471-0.384 0.19-0.089 0.399-0.134 0.628-0.134zM59.917 12.928c0.198 0 0.374-0.045 0.529-0.134 0.159-0.093 0.283-0.221 0.372-0.384 0.093-0.167 0.14-0.357 0.14-0.57s-0.047-0.401-0.14-0.564c-0.089-0.167-0.214-0.295-0.372-0.384-0.155-0.089-0.332-0.134-0.529-0.134-0.194 0-0.371 0.047-0.529 0.14-0.155 0.089-0.279 0.215-0.372 0.378-0.089 0.163-0.134 0.351-0.134 0.564s0.044 0.403 0.134 0.57c0.089 0.163 0.213 0.291 0.372 0.384 0.159 0.089 0.335 0.134 0.529 0.134zM63.58 10.269c0.426 0 0.752 0.105 0.977 0.314 0.229 0.209 0.343 0.522 0.343 0.937v1.862h-0.529v-0.407c-0.093 0.143-0.227 0.254-0.401 0.332-0.171 0.074-0.374 0.111-0.611 0.111-0.345 0-0.623-0.083-0.832-0.25-0.206-0.167-0.308-0.386-0.308-0.657s0.099-0.489 0.297-0.652c0.198-0.167 0.512-0.25 0.943-0.25h0.884v-0.111c0-0.241-0.070-0.425-0.209-0.553s-0.345-0.192-0.617-0.192c-0.182 0-0.361 0.031-0.535 0.093-0.175 0.058-0.322 0.138-0.442 0.239l-0.233-0.419c0.159-0.128 0.349-0.225 0.57-0.291 0.221-0.070 0.456-0.105 0.704-0.105zM63.452 12.986c0.213 0 0.397-0.047 0.553-0.14 0.155-0.097 0.268-0.233 0.337-0.407v-0.431h-0.861c-0.473 0-0.71 0.159-0.71 0.477 0 0.155 0.060 0.277 0.18 0.367s0.287 0.134 0.5 0.134zM67.7 11.776c0.206 0.054 0.365 0.142 0.477 0.262s0.169 0.27 0.169 0.448c0 0.182-0.062 0.345-0.186 0.489-0.124 0.14-0.297 0.25-0.518 0.332-0.217 0.078-0.461 0.116-0.733 0.116-0.229 0-0.454-0.029-0.675-0.087-0.217-0.062-0.411-0.149-0.582-0.262l0.169-0.425c0.147 0.093 0.316 0.167 0.506 0.221 0.19 0.050 0.382 0.076 0.576 0.076 0.264 0 0.473-0.045 0.628-0.134 0.159-0.093 0.239-0.217 0.239-0.372 0-0.143-0.064-0.254-0.192-0.332-0.124-0.078-0.3-0.116-0.529-0.116h-0.564v-0.401h0.524c0.209 0 0.374-0.037 0.495-0.111s0.18-0.175 0.18-0.303c0-0.14-0.072-0.248-0.215-0.326-0.14-0.078-0.33-0.116-0.57-0.116-0.306 0-0.63 0.079-0.972 0.239l-0.151-0.431c0.376-0.19 0.77-0.285 1.181-0.285 0.248 0 0.471 0.035 0.669 0.105s0.353 0.169 0.465 0.297c0.113 0.128 0.169 0.273 0.169 0.436 0 0.151-0.050 0.287-0.151 0.407s-0.237 0.211-0.407 0.273zM71.004 10.269c0.299 0 0.566 0.066 0.803 0.198s0.421 0.316 0.553 0.553c0.136 0.237 0.204 0.51 0.204 0.82s-0.068 0.586-0.204 0.826c-0.132 0.237-0.316 0.421-0.553 0.553s-0.504 0.198-0.803 0.198c-0.221 0-0.425-0.043-0.611-0.128-0.182-0.085-0.337-0.209-0.465-0.372v1.594h-0.559v-4.212h0.535v0.489c0.124-0.171 0.281-0.299 0.471-0.384 0.19-0.089 0.399-0.134 0.628-0.134zM70.957 12.928c0.198 0 0.374-0.045 0.529-0.134 0.159-0.093 0.283-0.221 0.372-0.384 0.093-0.167 0.14-0.357 0.14-0.57s-0.047-0.401-0.14-0.564c-0.089-0.167-0.213-0.295-0.372-0.384-0.155-0.089-0.332-0.134-0.529-0.134-0.194 0-0.37 0.047-0.529 0.14-0.155 0.089-0.279 0.215-0.372 0.378-0.089 0.163-0.134 0.351-0.134 0.564s0.044 0.403 0.134 0.57c0.089 0.163 0.213 0.291 0.372 0.384 0.159 0.089 0.335 0.134 0.529 0.134zM74.621 10.269c0.427 0 0.753 0.105 0.977 0.314 0.229 0.209 0.343 0.522 0.343 0.937v1.862h-0.529v-0.407c-0.093 0.143-0.227 0.254-0.401 0.332-0.171 0.074-0.374 0.111-0.611 0.111-0.345 0-0.623-0.083-0.832-0.25-0.206-0.167-0.308-0.386-0.308-0.657s0.099-0.489 0.297-0.652c0.198-0.167 0.512-0.25 0.943-0.25h0.884v-0.111c0-0.241-0.070-0.425-0.209-0.553s-0.345-0.192-0.617-0.192c-0.182 0-0.361 0.031-0.535 0.093-0.175 0.058-0.322 0.138-0.442 0.239l-0.233-0.419c0.159-0.128 0.349-0.225 0.57-0.291 0.221-0.070 0.456-0.105 0.704-0.105zM74.493 12.986c0.213 0 0.398-0.047 0.553-0.14 0.155-0.097 0.268-0.233 0.337-0.407v-0.431h-0.861c-0.473 0-0.71 0.159-0.71 0.477 0 0.155 0.060 0.277 0.18 0.367s0.287 0.134 0.5 0.134zM78.692 10.403c0.287 0 0.543 0.064 0.768 0.192s0.4 0.306 0.524 0.535c0.128 0.225 0.192 0.483 0.192 0.774 0 0.299-0.068 0.564-0.204 0.797-0.132 0.229-0.32 0.407-0.564 0.535-0.24 0.128-0.516 0.192-0.826 0.192-0.524 0-0.929-0.178-1.216-0.535-0.283-0.361-0.425-0.867-0.425-1.519 0-0.632 0.13-1.127 0.39-1.484 0.26-0.361 0.657-0.599 1.193-0.716l1.408-0.314 0.081 0.512-1.297 0.279c-0.403 0.089-0.704 0.241-0.902 0.454s-0.31 0.52-0.337 0.919c0.132-0.198 0.303-0.351 0.512-0.46s0.444-0.163 0.704-0.163zM78.593 12.963c0.198 0 0.372-0.045 0.524-0.134 0.155-0.089 0.275-0.211 0.361-0.367 0.086-0.159 0.128-0.339 0.128-0.541 0-0.306-0.093-0.553-0.279-0.739s-0.431-0.279-0.733-0.279c-0.303 0-0.549 0.093-0.739 0.279-0.186 0.186-0.279 0.432-0.279 0.739 0 0.202 0.043 0.382 0.128 0.541 0.089 0.155 0.212 0.277 0.367 0.367s0.33 0.134 0.524 0.134zM82.469 13.417c-0.306 0-0.582-0.068-0.826-0.204s-0.436-0.322-0.576-0.559c-0.136-0.241-0.204-0.512-0.204-0.815s0.068-0.572 0.204-0.809c0.14-0.241 0.332-0.427 0.576-0.559 0.244-0.136 0.52-0.204 0.826-0.204s0.58 0.068 0.82 0.204c0.244 0.132 0.435 0.318 0.57 0.559 0.14 0.237 0.209 0.506 0.209 0.809s-0.070 0.574-0.209 0.815c-0.136 0.237-0.326 0.423-0.57 0.559-0.24 0.136-0.514 0.204-0.82 0.204zM82.469 12.928c0.198 0 0.374-0.045 0.529-0.134 0.159-0.093 0.283-0.221 0.372-0.384 0.089-0.167 0.134-0.357 0.134-0.57s-0.044-0.401-0.134-0.564c-0.089-0.167-0.213-0.295-0.372-0.384-0.155-0.089-0.332-0.134-0.529-0.134s-0.376 0.045-0.535 0.134c-0.155 0.089-0.279 0.217-0.372 0.384-0.089 0.163-0.134 0.351-0.134 0.564s0.045 0.403 0.134 0.57c0.093 0.163 0.217 0.291 0.372 0.384 0.159 0.089 0.337 0.134 0.535 0.134zM87.235 10.787h-1.129v2.595h-0.559v-2.595h-1.129v-0.489h2.816v0.489zM89.179 12.079h-0.64v1.303h-0.559v-3.084h0.559v1.303h0.652l1.001-1.303h0.599l-1.169 1.484 1.251 1.6h-0.657l-1.036-1.303zM92.675 10.269c0.427 0 0.753 0.105 0.977 0.314 0.229 0.209 0.343 0.522 0.343 0.937v1.862h-0.529v-0.407c-0.093 0.143-0.227 0.254-0.401 0.332-0.17 0.074-0.374 0.111-0.611 0.111-0.345 0-0.623-0.083-0.832-0.25-0.205-0.167-0.308-0.386-0.308-0.657s0.099-0.489 0.297-0.652c0.198-0.167 0.512-0.25 0.943-0.25h0.884v-0.111c0-0.241-0.070-0.425-0.209-0.553s-0.345-0.192-0.617-0.192c-0.182 0-0.361 0.031-0.535 0.093-0.175 0.058-0.322 0.138-0.442 0.239l-0.233-0.419c0.159-0.128 0.349-0.225 0.57-0.291 0.221-0.070 0.456-0.105 0.704-0.105zM92.547 12.986c0.214 0 0.398-0.047 0.553-0.14 0.155-0.097 0.268-0.233 0.337-0.407v-0.431h-0.861c-0.473 0-0.71 0.159-0.71 0.477 0 0.155 0.060 0.277 0.18 0.367s0.287 0.134 0.5 0.134zM30.796 17.28h0.559v2.246l1.891-2.246h0.506v3.084h-0.559v-2.246l-1.885 2.246h-0.512v-3.084zM39.604 17.28v3.084h-0.559v-2.595h-1.74v2.595h-0.559v-3.084h2.857zM42.18 20.399c-0.306 0-0.582-0.068-0.826-0.204s-0.436-0.322-0.576-0.559c-0.136-0.241-0.204-0.512-0.204-0.815s0.068-0.572 0.204-0.809c0.14-0.241 0.332-0.427 0.576-0.559 0.244-0.136 0.52-0.204 0.826-0.204s0.58 0.068 0.82 0.204c0.244 0.132 0.434 0.318 0.57 0.559 0.14 0.237 0.209 0.506 0.209 0.809s-0.070 0.574-0.209 0.815c-0.136 0.237-0.326 0.423-0.57 0.559-0.241 0.136-0.514 0.204-0.82 0.204zM42.18 19.91c0.198 0 0.374-0.045 0.529-0.134 0.159-0.093 0.283-0.221 0.372-0.384 0.089-0.167 0.134-0.357 0.134-0.57s-0.044-0.401-0.134-0.564c-0.089-0.167-0.213-0.295-0.372-0.384-0.155-0.089-0.332-0.134-0.529-0.134s-0.376 0.045-0.535 0.134c-0.155 0.089-0.279 0.217-0.372 0.384-0.089 0.163-0.134 0.351-0.134 0.564s0.044 0.403 0.134 0.57c0.093 0.163 0.217 0.291 0.372 0.384 0.159 0.089 0.337 0.134 0.535 0.134zM47.874 19.875v1.204h-0.524v-0.716h-2.577v0.716h-0.529v-1.204h0.163c0.198-0.012 0.334-0.151 0.407-0.419s0.124-0.646 0.151-1.135l0.047-1.041h2.391v2.595h0.471zM45.477 18.362c-0.015 0.388-0.048 0.71-0.099 0.966-0.047 0.252-0.134 0.434-0.262 0.547h1.728v-2.106h-1.338l-0.029 0.593zM51.912 19.875v1.204h-0.524v-0.716h-2.577v0.716h-0.529v-1.204h0.163c0.198-0.012 0.333-0.151 0.407-0.419s0.124-0.646 0.151-1.135l0.047-1.041h2.391v2.595h0.471zM49.515 18.362c-0.016 0.388-0.049 0.71-0.099 0.966-0.047 0.252-0.134 0.434-0.262 0.547h1.728v-2.106h-1.338l-0.029 0.593zM55.601 18.839c0 0.043-0.004 0.099-0.012 0.169h-2.502c0.035 0.271 0.153 0.491 0.355 0.657 0.206 0.163 0.46 0.244 0.762 0.244 0.369 0 0.665-0.124 0.89-0.372l0.308 0.361c-0.14 0.163-0.314 0.287-0.524 0.372-0.206 0.085-0.436 0.128-0.692 0.128-0.326 0-0.615-0.066-0.867-0.198-0.252-0.136-0.448-0.324-0.588-0.564-0.136-0.241-0.204-0.512-0.204-0.815 0-0.299 0.066-0.568 0.198-0.809 0.136-0.241 0.32-0.427 0.553-0.559 0.236-0.136 0.502-0.204 0.797-0.204s0.556 0.068 0.785 0.204c0.233 0.132 0.413 0.318 0.541 0.559 0.132 0.241 0.198 0.516 0.198 0.826zM54.077 17.722c-0.268 0-0.492 0.081-0.675 0.244-0.178 0.163-0.283 0.376-0.314 0.64h1.978c-0.031-0.26-0.138-0.471-0.32-0.634-0.178-0.167-0.401-0.25-0.669-0.25zM58.277 17.251c0.299 0 0.566 0.066 0.803 0.198s0.421 0.316 0.553 0.553c0.136 0.237 0.204 0.51 0.204 0.82s-0.068 0.586-0.204 0.826c-0.132 0.237-0.316 0.421-0.553 0.553s-0.504 0.198-0.803 0.198c-0.221 0-0.425-0.043-0.611-0.128-0.182-0.085-0.337-0.209-0.465-0.372v1.594h-0.559v-4.212h0.535v0.489c0.124-0.171 0.281-0.299 0.471-0.384 0.19-0.089 0.4-0.134 0.628-0.134zM58.231 19.91c0.198 0 0.374-0.045 0.529-0.134 0.159-0.093 0.283-0.221 0.372-0.384 0.093-0.167 0.14-0.357 0.14-0.57s-0.047-0.401-0.14-0.564c-0.089-0.167-0.213-0.295-0.372-0.384-0.155-0.089-0.332-0.134-0.529-0.134-0.194 0-0.37 0.047-0.529 0.14-0.155 0.089-0.279 0.215-0.372 0.378-0.089 0.163-0.134 0.351-0.134 0.564s0.045 0.403 0.134 0.57c0.089 0.163 0.214 0.291 0.372 0.384 0.159 0.089 0.336 0.134 0.529 0.134zM63.525 19.060h-0.599v1.303h-0.559v-1.303h-0.599l-0.849 1.303h-0.663l1.059-1.594-0.977-1.489h0.593l0.832 1.303h0.605v-1.303h0.559v1.303h0.605l0.832-1.303h0.599l-0.977 1.495 1.059 1.588h-0.663l-0.855-1.303zM67.031 19.060h-0.64v1.303h-0.559v-3.084h0.559v1.303h0.652l1.001-1.303h0.599l-1.169 1.484 1.251 1.6h-0.657l-1.036-1.303zM70.527 17.251c0.427 0 0.753 0.105 0.977 0.314 0.229 0.209 0.343 0.522 0.343 0.937v1.862h-0.529v-0.407c-0.093 0.143-0.227 0.254-0.401 0.332-0.171 0.074-0.374 0.111-0.611 0.111-0.345 0-0.623-0.083-0.832-0.25-0.206-0.167-0.308-0.386-0.308-0.657s0.099-0.489 0.297-0.652c0.198-0.167 0.512-0.25 0.943-0.25h0.884v-0.111c0-0.241-0.070-0.425-0.209-0.553s-0.345-0.192-0.617-0.192c-0.182 0-0.361 0.031-0.535 0.093-0.175 0.058-0.322 0.138-0.442 0.239l-0.233-0.419c0.159-0.128 0.349-0.225 0.57-0.291 0.221-0.070 0.456-0.105 0.704-0.105zM70.399 19.968c0.213 0 0.398-0.047 0.553-0.14 0.155-0.097 0.268-0.233 0.337-0.407v-0.431h-0.861c-0.473 0-0.71 0.159-0.71 0.477 0 0.155 0.060 0.277 0.18 0.367s0.287 0.134 0.5 0.134zM76.109 20.399c-0.314 0-0.595-0.068-0.844-0.204-0.244-0.136-0.436-0.322-0.576-0.559-0.14-0.241-0.209-0.512-0.209-0.815s0.070-0.572 0.209-0.809c0.14-0.241 0.332-0.427 0.576-0.559 0.248-0.136 0.529-0.204 0.844-0.204 0.279 0 0.528 0.056 0.745 0.169 0.221 0.113 0.392 0.275 0.512 0.489l-0.425 0.273c-0.097-0.147-0.217-0.258-0.361-0.332s-0.303-0.111-0.477-0.111c-0.202 0-0.384 0.045-0.547 0.134-0.159 0.089-0.285 0.217-0.378 0.384-0.089 0.163-0.134 0.351-0.134 0.564 0 0.217 0.045 0.409 0.134 0.576 0.093 0.163 0.219 0.289 0.378 0.378 0.163 0.089 0.345 0.134 0.547 0.134 0.175 0 0.334-0.037 0.477-0.111s0.264-0.184 0.361-0.332l0.425 0.268c-0.12 0.213-0.291 0.378-0.512 0.495-0.217 0.113-0.465 0.169-0.745 0.169zM79.363 17.251c0.427 0 0.753 0.105 0.977 0.314 0.229 0.209 0.343 0.522 0.343 0.937v1.862h-0.529v-0.407c-0.093 0.143-0.227 0.254-0.401 0.332-0.171 0.074-0.374 0.111-0.611 0.111-0.345 0-0.623-0.083-0.832-0.25-0.206-0.167-0.308-0.386-0.308-0.657s0.099-0.489 0.297-0.652c0.198-0.167 0.512-0.25 0.943-0.25h0.884v-0.111c0-0.241-0.070-0.425-0.209-0.553s-0.345-0.192-0.617-0.192c-0.182 0-0.361 0.031-0.535 0.093-0.175 0.058-0.322 0.138-0.442 0.239l-0.233-0.419c0.159-0.128 0.349-0.225 0.57-0.291 0.221-0.070 0.456-0.105 0.704-0.105zM79.235 19.968c0.213 0 0.398-0.047 0.553-0.14 0.155-0.097 0.268-0.233 0.337-0.407v-0.431h-0.861c-0.473 0-0.71 0.159-0.71 0.477 0 0.155 0.060 0.277 0.18 0.367s0.287 0.134 0.5 0.134zM81.864 17.28h0.559v2.246l1.891-2.246h0.506v3.084h-0.559v-2.246l-1.885 2.246h-0.512v-3.084zM83.307 16.879c-0.287 0-0.51-0.068-0.669-0.204-0.159-0.14-0.24-0.339-0.244-0.599h0.378c0.004 0.143 0.052 0.26 0.145 0.349 0.097 0.085 0.225 0.128 0.384 0.128s0.287-0.043 0.384-0.128c0.097-0.089 0.147-0.206 0.151-0.349h0.39c-0.004 0.26-0.087 0.46-0.25 0.599-0.163 0.136-0.386 0.204-0.669 0.204zM88.377 17.769h-1.129v2.595h-0.559v-2.595h-1.129v-0.489h2.816v0.489zM90.307 20.399c-0.307 0-0.582-0.068-0.826-0.204s-0.436-0.322-0.576-0.559c-0.136-0.241-0.204-0.512-0.204-0.815s0.068-0.572 0.204-0.809c0.14-0.241 0.332-0.427 0.576-0.559 0.244-0.136 0.52-0.204 0.826-0.204s0.58 0.068 0.82 0.204c0.244 0.132 0.434 0.318 0.57 0.559 0.14 0.237 0.209 0.506 0.209 0.809s-0.070 0.574-0.209 0.815c-0.136 0.237-0.326 0.423-0.57 0.559-0.241 0.136-0.514 0.204-0.82 0.204zM90.307 19.91c0.198 0 0.374-0.045 0.529-0.134 0.159-0.093 0.283-0.221 0.372-0.384 0.089-0.167 0.134-0.357 0.134-0.57s-0.045-0.401-0.134-0.564c-0.089-0.167-0.214-0.295-0.372-0.384-0.155-0.089-0.332-0.134-0.529-0.134s-0.376 0.045-0.535 0.134c-0.155 0.089-0.279 0.217-0.372 0.384-0.089 0.163-0.134 0.351-0.134 0.564s0.044 0.403 0.134 0.57c0.093 0.163 0.217 0.291 0.372 0.384 0.159 0.089 0.337 0.134 0.535 0.134zM94.988 18.764c0.4 0.101 0.599 0.351 0.599 0.751 0 0.271-0.103 0.481-0.308 0.628-0.202 0.147-0.504 0.221-0.908 0.221h-1.484v-3.084h1.431c0.365 0 0.65 0.070 0.855 0.209 0.206 0.136 0.308 0.33 0.308 0.582 0 0.163-0.044 0.305-0.134 0.425-0.085 0.116-0.205 0.206-0.361 0.268zM93.435 18.607h0.838c0.214 0 0.374-0.039 0.483-0.116 0.113-0.078 0.169-0.19 0.169-0.337 0-0.295-0.217-0.442-0.652-0.442h-0.838v0.896zM94.331 19.933c0.233 0 0.407-0.037 0.524-0.111s0.175-0.188 0.175-0.343c0-0.159-0.054-0.277-0.163-0.355-0.105-0.078-0.271-0.116-0.5-0.116h-0.931v0.925h0.896z"></path>
</symbol>
<symbol id="icon-mail" viewBox="0 0 32 32">
<path d="M29.188 4.75h-26.375c-1.554 0-2.813 1.266-2.813 2.813v16.875c0 1.555 1.268 2.812 2.813 2.812h26.375c1.541 0 2.812-1.252 2.812-2.812v-16.875c0-1.543-1.254-2.813-2.812-2.813zM28.794 6.625c-0.575 0.572-10.463 10.408-10.805 10.748-0.531 0.531-1.238 0.824-1.989 0.824s-1.457-0.293-1.99-0.826c-0.23-0.228-10.009-9.957-10.803-10.746h25.587zM1.875 24.056v-16.111l8.102 8.060-8.102 8.051zM3.208 25.375l8.099-8.048 1.379 1.371c0.885 0.885 2.063 1.373 3.315 1.373s2.429-0.488 3.313-1.371l1.38-1.373 8.099 8.048h-25.585zM30.125 24.056l-8.102-8.051 8.102-8.060v16.111z"></path>
</symbol>
<symbol id="icon-man-shield" viewBox="0 0 32 32">
<path d="M12.933 0c-1.766 0-3.202 1.436-3.202 3.202s1.436 3.202 3.202 3.202c1.766 0 3.202-1.436 3.202-3.202s-1.436-3.202-3.202-3.202zM12.933 5.466c-1.249 0-2.264-1.016-2.264-2.264s1.016-2.264 2.264-2.264c1.249 0 2.264 1.016 2.264 2.264s-1.016 2.264-2.264 2.264z"></path>
<path d="M24.938 19.517c-0.185-0.181-0.482-0.178-0.663 0.006l-3.935 4.013-1.389-1.454c-0.179-0.187-0.476-0.194-0.663-0.015s-0.194 0.476-0.015 0.663l1.724 1.804c0.183 0.191 0.488 0.193 0.674 0.004l4.274-4.358c0.181-0.185 0.178-0.482-0.006-0.663z"></path>
<path d="M27.524 22.65c-0.254-0.050-0.501 0.114-0.551 0.368-0.538 2.705-2.446 5.015-4.981 6.031-0.24 0.096-0.357 0.369-0.261 0.61s0.369 0.357 0.61 0.261c2.918-1.169 4.964-3.763 5.552-6.718 0.051-0.254-0.115-0.501-0.368-0.551z"></path>
<path d="M26.719 15.422c-1.254 0.708-2.437 0.732-3.516 0.070-0.858-0.526-1.338-1.297-1.358-1.328-0.158-0.259-0.428-0.417-0.728-0.432-0.872-2.442-2.328-4.138-3.424-5.148-0.699-0.644-1.607-0.999-2.556-0.999-0.456 0-3.965 0-4.409 0-1.013 0-1.977 0.381-2.715 1.072-1.519 1.423-4.070 4.533-4.085 9.364-0.003 1.013 0.801 1.86 1.793 1.887 1.036 0.030 1.897-0.801 1.897-1.844 0-1.813 0.509-3.52 1.484-5.005v17.311c0 0.897 0.73 1.626 1.626 1.626h1.047c0.453 0 0.863-0.186 1.158-0.485 0.295 0.299 0.705 0.485 1.158 0.485h1.047c0.897 0 1.626-0.73 1.626-1.626v-2.471c0.867 0.871 1.9 1.559 3.041 2.016 0.241 0.096 0.513-0.021 0.61-0.261s-0.020-0.513-0.261-0.61c-3.018-1.209-5.141-4.207-5.141-7.67v-5.11c1.898 1.051 3.735 0.795 5.237-0.606 0.344-0.316 0.625-0.651 0.815-0.949 0.003-0.004 0.007-0.010 0.009-0.014 0.135 0.208 0.697 1.017 1.641 1.596 0.949 0.582 2.483 1.046 4.42-0.027v4.653c0 0.259 0.21 0.469 0.469 0.469s0.469-0.21 0.469-0.469v-4.707c-0-0.693-0.747-1.13-1.352-0.789zM13.758 8.524l-0.561 0.667c-0.137 0.163-0.388 0.163-0.526 0l-0.561-0.667h1.649zM16.764 15.929v-2.748c0.54 0.848 0.927 1.762 1.156 2.732-0.376 0.082-0.761 0.087-1.156 0.016zM18.801 15.569c-0.377-1.505-1.098-2.883-2.151-4.106-0.283-0.329-0.824-0.127-0.824 0.306v3.857c-0.202-0.092-0.455-0.233-0.462-0.236-0.596-0.28-1.29 0.154-1.29 0.82v5.164c0 1.962 0.607 3.839 1.752 5.423v3.573h0c0 0.38-0.309 0.689-0.689 0.689h-1.047c-0.38 0-0.689-0.309-0.689-0.689v-9.634c0-0.259-0.21-0.469-0.469-0.469s-0.469 0.21-0.469 0.469v9.634c0 0.38-0.309 0.689-0.689 0.689h-1.047c-0.38 0-0.689-0.309-0.689-0.689v-18.694c0-0.431-0.536-0.633-0.82-0.31-1.661 1.882-2.539 4.199-2.539 6.699 0 0.505-0.412 0.919-0.933 0.907-0.487-0.013-0.883-0.438-0.881-0.947 0.014-4.48 2.379-7.363 3.788-8.683 0.563-0.528 1.3-0.819 2.074-0.819h0.154l1.070 1.271c0.512 0.608 1.449 0.608 1.96 0l1.070-1.271h0.154c0.713 0 1.395 0.267 1.921 0.751 1.038 0.956 2.424 2.575 3.226 4.913-0.357 0.539-0.901 1.053-1.483 1.381z"></path>
</symbol>
<symbol id="icon-okay" viewBox="0 0 32 32">
<path fill="#f0db1d" style="fill: var(--color1, #f0db1d)" d="M11 2.5v13.5c0 0.398 0.158 0.779 0.439 1.061s0.663 0.439 1.061 0.439h7c0.398 0 0.779-0.158 1.061-0.439s0.439-0.663 0.439-1.061v-13.5c0-0.398-0.158-0.779-0.439-1.061s-0.663-0.439-1.061-0.439h-7c-0.398 0-0.779 0.158-1.061 0.439s-0.439 0.663-0.439 1.061zM20 16c0 0.133-0.053 0.26-0.146 0.354s-0.221 0.146-0.354 0.146h-7c-0.133 0-0.26-0.053-0.354-0.146s-0.146-0.221-0.146-0.354v-1.5h8v1.5zM20 13.5h-8v-9.5h8v9.5zM20 2.5v0.5h-8v-0.5c0-0.133 0.053-0.26 0.146-0.354s0.221-0.146 0.354-0.146h7c0.133 0 0.26 0.053 0.354 0.146s0.146 0.221 0.146 0.354z"></path>
<path fill="#f0db1d" style="fill: var(--color1, #f0db1d)" d="M13.146 10.353l1.5 1.5c0.094 0.094 0.221 0.146 0.354 0.146 0.014 0.001 0.029 0.001 0.043 0 0.073-0.006 0.143-0.029 0.206-0.065s0.118-0.086 0.16-0.146l3.5-5-0.819-0.573-3.158 4.509-1.079-1.078-0.707 0.707z"></path>
<path fill="#f0db1d" style="fill: var(--color1, #f0db1d)" d="M30.5 19h-1.5v-0.5c0-0.133-0.053-0.26-0.146-0.354s-0.221-0.146-0.354-0.146h-3c-0.133 0-0.26 0.053-0.354 0.146s-0.146 0.221-0.146 0.354v1.5h-1.919l-4.423-1.474c-0.051-0.017-0.104-0.026-0.158-0.026h-6.5c-0.133 0-0.26 0.053-0.354 0.146l-0.853 0.854h-3.793v-1c0-0.133-0.053-0.26-0.146-0.354s-0.221-0.146-0.354-0.146h-3c-0.133 0-0.26 0.053-0.354 0.146s-0.146 0.221-0.146 0.354v0.5h-1.5c-0.133 0-0.26 0.053-0.354 0.146s-0.146 0.221-0.146 0.354v8c0 0.133 0.053 0.26 0.146 0.354s0.221 0.146 0.354 0.146h1.5v0.5c0 0.133 0.053 0.26 0.146 0.354s0.221 0.146 0.354 0.146h3c0.133 0 0.26-0.053 0.354-0.146s0.146-0.221 0.146-0.354v-1h3.293l3.353 3.354c0.094 0.094 0.221 0.146 0.354 0.146h3c0.099-0 0.196-0.029 0.278-0.084s0.146-0.133 0.184-0.224 0.048-0.192 0.028-0.289c-0.019-0.097-0.067-0.186-0.137-0.256l-0.147-0.146h1.793c0.099-0 0.196-0.029 0.278-0.084s0.146-0.133 0.184-0.224 0.048-0.192 0.028-0.289c-0.019-0.097-0.067-0.186-0.137-0.256l-0.147-0.146h1.793c0.099-0 0.196-0.029 0.278-0.084s0.146-0.133 0.184-0.224 0.048-0.192 0.028-0.289c-0.019-0.097-0.067-0.186-0.137-0.256l-0.147-0.146h1.793c0.099-0 0.196-0.029 0.278-0.084s0.146-0.133 0.184-0.224 0.048-0.192 0.028-0.289c-0.019-0.097-0.067-0.186-0.137-0.256l-0.147-0.146h1.793v1.5c0 0.133 0.053 0.26 0.146 0.354s0.221 0.146 0.354 0.146h3c0.133 0 0.26-0.053 0.354-0.146s0.146-0.221 0.146-0.354v-0.5h1.5c0.133 0 0.26-0.053 0.354-0.146s0.146-0.221 0.146-0.354v-8c0-0.133-0.053-0.26-0.146-0.354s-0.221-0.146-0.354-0.146zM3 27h-1v-7h1v7zM6 28h-2v-9h2v9zM25 26h-2.793l-1.853-1.854-0.707 0.707 2.147 2.146h-1.586l-2.853-2.854-0.707 0.707 3.147 3.146h-1.586l-2.853-2.854-0.707 0.707 3.147 3.146h-1.586l-2.853-2.854-0.707 0.707 3.147 3.146h-1.586l-3.353-3.354c-0.094-0.094-0.221-0.146-0.354-0.146h-3.5v-6h2.793l-2.646 2.646c-0.070 0.070-0.118 0.159-0.137 0.256s-0.009 0.197 0.028 0.289 0.102 0.169 0.184 0.224c0.082 0.055 0.179 0.084 0.278 0.084h4c0.133-0 0.26-0.053 0.354-0.146l1.853-1.854h3.126l1.867 1.4 0.6-0.8-2-1.5c-0.087-0.065-0.192-0.1-0.3-0.1h-3.5c-0.133 0-0.26 0.053-0.354 0.146l-1.853 1.854h-2.586l3.5-3.5h6.212l4.423 1.474c0.051 0.017 0.104 0.026 0.158 0.026h2v5zM28 28h-2v-9h2v9zM30 27h-1v-7h1v7z"></path>
<path fill="#f0db1d" style="fill: var(--color1, #f0db1d)" d="M14 5h-1v1h1v-1z"></path>
</symbol>
<symbol id="icon-shield" viewBox="0 0 33 32">
<path d="M5.463 14.238c-0.265 0-0.479 0.211-0.479 0.471v0.852c0 3.516 1.62 6.769 4.444 8.925l4.528 3.456c0.167 0.128 0.368 0.192 0.568 0.192s0.401-0.064 0.568-0.192l3.542-2.703c0.209-0.16 0.247-0.456 0.085-0.662s-0.463-0.243-0.673-0.083l-3.522 2.689-4.508-3.441c-2.589-1.976-4.073-4.957-4.073-8.18v-0.852c0-0.26-0.215-0.471-0.479-0.471z"></path>
<path d="M14.524 28.773c-0.363 0-0.657 0.289-0.657 0.646s0.294 0.646 0.657 0.646c0.363 0 0.657-0.289 0.657-0.646s-0.294-0.646-0.657-0.646z"></path>
<path d="M14.524 2.543c-0.363 0-0.657 0.289-0.657 0.646s0.294 0.646 0.657 0.646c0.363 0 0.657-0.289 0.657-0.646s-0.294-0.646-0.657-0.646z"></path>
<path d="M24.416 6.994c0 0.357 0.294 0.646 0.657 0.646s0.657-0.289 0.657-0.646c0-0.357-0.294-0.646-0.657-0.646s-0.657 0.289-0.657 0.646z"></path>
<path d="M3.239 6.994c0 0.357 0.294 0.646 0.657 0.646s0.657-0.289 0.657-0.646c0-0.357-0.294-0.646-0.657-0.646s-0.657 0.289-0.657 0.646z"></path>
<path d="M30.31 28.909v-11.436c0.561-0.259 0.95-0.82 0.95-1.469 0-0.894-0.74-1.622-1.649-1.622h-5.546v-5.725c0-0.464-0.353-0.853-0.821-0.905-1.827-0.203-3.53-0.584-5.059-1.133-1.026-0.368-1.955-0.808-2.76-1.307-0.547-0.339-1.253-0.339-1.8 0-0.805 0.499-1.734 0.939-2.76 1.307-1.53 0.549-3.232 0.93-5.059 1.133-0.468 0.052-0.821 0.441-0.821 0.905v3.822c0 0.26 0.215 0.471 0.479 0.471s0.479-0.211 0.479-0.471v-3.794c1.892-0.212 3.658-0.609 5.251-1.181 1.090-0.391 2.080-0.86 2.942-1.395 0.24-0.149 0.538-0.149 0.777-0 0.862 0.535 1.852 1.004 2.942 1.395 1.593 0.572 3.359 0.969 5.251 1.181v5.696h-2.569c-0.909 0-1.649 0.728-1.649 1.622 0 0.651 0.392 1.214 0.957 1.472v10.261l-3.582 2.734c-0.495 0.378-1.112 0.586-1.738 0.586-0.635 0-1.236-0.202-1.738-0.586l-5.113-3.903c-1.683-1.285-3.069-2.959-4.006-4.842s-1.433-3.985-1.433-6.081v-10.275c0-0.12 0.1-0.219 0.222-0.22l1.554-0.011c5.312-0.038 7.898-1.807 8.966-2.858 0.326-0.32 0.628-0.663 0.899-1.018 0.156-0.204 0.393-0.321 0.652-0.321 0.001 0 0.001 0 0.002 0 0.257 0.001 0.493 0.117 0.647 0.321 0.273 0.361 0.573 0.703 0.893 1.018 0.86 0.846 3.456 2.819 8.966 2.858l1.554 0.011c0.122 0.001 0.222 0.1 0.222 0.22v7.089c0 0.26 0.215 0.471 0.479 0.471s0.479-0.211 0.479-0.471v-7.089c0-0.637-0.527-1.158-1.174-1.163l-1.554-0.011c-5.155-0.037-7.519-1.818-8.296-2.582-0.287-0.282-0.557-0.59-0.802-0.914-0.336-0.444-0.851-0.7-1.414-0.701-0.001 0-0.003 0-0.004 0-0.563 0-1.080 0.254-1.418 0.697-0.244 0.32-0.517 0.629-0.811 0.917-0.965 0.949-3.326 2.546-8.296 2.582l-1.554 0.011c-0.647 0.005-1.174 0.526-1.174 1.163v10.275c0 2.239 0.529 4.485 1.53 6.496s2.481 3.799 4.279 5.172l5.113 3.903c0.662 0.505 1.488 0.784 2.325 0.784s1.663-0.278 2.325-0.784l2.362-1.803c-0.203 0.27-0.324 0.603-0.324 0.964 0 0.895 0.74 1.622 1.649 1.622h9.074c0.909 0 1.649-0.728 1.649-1.622-0-0.649-0.39-1.21-0.95-1.469zM20.803 23.448c0.405-0.406 0.778-0.842 1.114-1.302 0.346 0.412 0.75 0.76 1.191 1.013-1.126 0.646-2.011 1.908-2.305 3.296v-3.007zM20.803 19.864c0.107 0.506 0.293 0.995 0.541 1.444-0.169 0.248-0.35 0.489-0.541 0.723v-2.167zM21.656 27.442c0-1.679 1.184-3.389 2.585-3.734 0.256-0.063 0.435-0.289 0.435-0.549s-0.179-0.486-0.435-0.549c-1.401-0.345-2.585-2.055-2.585-3.734v-1.251h6.835v1.251c0 1.679-1.184 3.389-2.585 3.734-0.256 0.063-0.435 0.288-0.435 0.549s0.179 0.486 0.435 0.549c1.401 0.345 2.585 2.055 2.585 3.734v1.314h-6.835v-1.314zM29.351 26.487c-0.287-1.401-1.176-2.676-2.311-3.328 1.135-0.651 2.024-1.927 2.311-3.328v6.655zM20.537 15.325h9.074c0.381 0 0.691 0.305 0.691 0.679s-0.31 0.679-0.691 0.679h-9.074c-0.381 0-0.691-0.305-0.691-0.679s0.31-0.679 0.691-0.679zM29.611 31.057h-9.074c-0.381 0-0.691-0.305-0.691-0.679s0.31-0.679 0.691-0.679h9.074c0.381 0 0.691 0.305 0.691 0.679s-0.31 0.679-0.691 0.679z"></path>
<path d="M12.328 19.942h0.007c0.443 0 0.855-0.196 1.129-0.539l6.059-7.563c0.238-0.297 0.344-0.667 0.299-1.042s-0.236-0.711-0.538-0.944c-0.302-0.234-0.678-0.338-1.059-0.294s-0.723 0.232-0.96 0.529l-4.914 6.133-2.234-2.87c-0.482-0.619-1.386-0.737-2.016-0.263-0.305 0.23-0.501 0.562-0.551 0.937s0.050 0.746 0.284 1.046l3.36 4.315c0.272 0.349 0.684 0.551 1.135 0.554zM8.5 14.151c0.017-0.125 0.082-0.236 0.184-0.312 0.087-0.065 0.189-0.097 0.291-0.097 0.144 0 0.287 0.064 0.381 0.185l2.61 3.351c0.090 0.115 0.229 0.184 0.377 0.185 0.146-0.001 0.288-0.065 0.38-0.18l5.296-6.609c0.079-0.099 0.193-0.162 0.32-0.176s0.253 0.020 0.353 0.098c0.101 0.078 0.164 0.19 0.179 0.315s-0.020 0.248-0.1 0.347l-6.059 7.563c-0.091 0.114-0.229 0.18-0.376 0.18h-0.003c-0.149-0.001-0.287-0.068-0.377-0.185l-3.36-4.315c-0.078-0.1-0.111-0.224-0.095-0.349z"></path>
</symbol>
</defs>
</svg>
