<svg aria-hidden="true" style="position:absolute;width:0;height:0" xmlns="http://www.w3.org/2000/svg" overflow="hidden"><defs><symbol id="icon-calculator" viewBox="0 0 35 32"><path d="M15.441 18.253c0 .292.256.529.572.529s.572-.237.572-.529c0-1.75-1.75-3.197-4.003-3.409v-.559c0-.292-.256-.529-.572-.529s-.572.237-.572.529v.559c-2.253.212-4.003 1.659-4.003 3.409s1.75 3.197 4.003 3.409v4.755c-1.62-.189-2.859-1.168-2.859-2.345 0-.292-.256-.529-.572-.529s-.572.237-.572.529c0 1.75 1.75 3.197 4.003 3.409v.559c0 .292.256.529.572.529s.572-.237.572-.529v-.559c2.253-.212 4.003-1.659 4.003-3.409s-1.75-3.197-4.003-3.409v-4.755c1.62.189 2.859 1.168 2.859 2.345zm-6.863 0c0-1.177 1.239-2.155 2.859-2.345v4.69c-1.62-.189-2.859-1.168-2.859-2.345zm6.863 5.82c0 1.177-1.239 2.155-2.859 2.345v-4.69c1.62.189 2.859 1.168 2.859 2.345z"/><path d="M2.059 15.964c-.286-.123-.626-.008-.759.257a12.099 12.099 0 00-1.299 5.471c0 6.67 4.04 10.052 12.009 10.052 1.61.023 3.217-.148 4.779-.509.305-.075.487-.365.406-.647s-.394-.45-.7-.375a19.024 19.024 0 01-4.485.474c-7.311 0-10.866-2.942-10.866-8.994a10.962 10.962 0 011.194-5.026c.132-.265.008-.579-.279-.702zm30.538-2.737H20.016c-.948 0-1.716.711-1.716 1.587v15.343c0 .877.768 1.587 1.716 1.587h12.581c.947 0 1.716-.711 1.716-1.587V14.814c0-.877-.768-1.587-1.716-1.587zm.572 16.93c0 .292-.256.529-.572.529H20.016c-.316 0-.572-.237-.572-.529V14.814c0-.292.256-.529.572-.529h12.581c.316 0 .572.237.572.529v15.343z"/><path d="M22.303 20.105h8.006c.632 0 1.144-.474 1.144-1.058v-2.116c0-.584-.512-1.058-1.144-1.058h-8.006c-.632 0-1.144.474-1.144 1.058v2.116c0 .584.512 1.058 1.144 1.058zm0-3.175h8.006v2.116h-8.006V16.93zm1.144 4.762h-1.716c-.316 0-.572.237-.572.529s.256.529.572.529h1.716c.316 0 .572-.237.572-.529s-.256-.529-.572-.529zm0 2.116h-1.716c-.316 0-.572.237-.572.529s.256.529.572.529h1.716c.316 0 .572-.237.572-.529s-.256-.529-.572-.529zm0 2.116h-1.716c-.316 0-.572.237-.572.529s.256.529.572.529h1.716c.316 0 .572-.237.572-.529s-.256-.529-.572-.529zm0 2.117h-1.716c-.316 0-.572.237-.572.529s.256.529.572.529h1.716c.316 0 .572-.237.572-.529s-.256-.529-.572-.529zm4.003-6.349h-1.716c-.316 0-.572.237-.572.529s.256.529.572.529h1.716c.316 0 .572-.237.572-.529s-.256-.529-.572-.529zm0 2.116h-1.716c-.316 0-.572.237-.572.529s.256.529.572.529h1.716c.316 0 .572-.237.572-.529s-.256-.529-.572-.529zm0 2.116h-1.716c-.316 0-.572.237-.572.529s.256.529.572.529h1.716c.316 0 .572-.237.572-.529s-.256-.529-.572-.529zm0 2.117h-1.716c-.316 0-.572.237-.572.529s.256.529.572.529h1.716c.316 0 .572-.237.572-.529s-.256-.529-.572-.529zm4.003-6.349h-1.716c-.316 0-.572.237-.572.529s.256.529.572.529h1.716c.316 0 .572-.237.572-.529s-.256-.529-.572-.529zm0 2.116h-1.716c-.316 0-.572.237-.572.529s.256.529.572.529h1.716c.316 0 .572-.237.572-.529s-.256-.529-.572-.529zm0 2.116h-1.716c-.316 0-.572.237-.572.529s.256.529.572.529h1.716c.316 0 .572-.237.572-.529s-.256-.529-.572-.529zm0 2.117h-1.716c-.316 0-.572.237-.572.529s.256.529.572.529h1.716c.316 0 .572-.237.572-.529s-.256-.529-.572-.529zM3.617.668C2.111 1.944 4.757 5.88 6.316 7.936h-.311a2.078 2.078 0 00-1.417.541c-.374.349-.584.82-.585 1.311.002.659.385 1.267 1.003 1.595a25.534 25.534 0 00-1.884 2.055c-.189.234-.138.565.114.741s.611.128.801-.106a26.119 26.119 0 012.288-2.434h11.689c.715 0 1.376-.353 1.733-.926s.358-1.279 0-1.852c-.358-.573-1.018-.926-1.733-.926h-.311c1.558-2.055 4.204-5.991 2.699-7.268-.692-.586-1.498-.159-2.209.215a4.65 4.65 0 01-2.181.704 2.297 2.297 0 01-1.63-.667c-.626-.589-1.481-.92-2.373-.92s-1.748.332-2.373.92a2.304 2.304 0 01-1.633.667A4.634 4.634 0 015.824.882C5.114.507 4.308.081 3.618.667zm15.005 8.558c.246.227.32.569.187.866s-.447.49-.794.489H6.006c-.474 0-.858-.355-.858-.794s.384-.794.858-.794h12.009c.228 0 .446.083.608.232zM8.002 2.645c.893 0 1.748-.332 2.374-.921.418-.424 1.009-.666 1.63-.666s1.212.242 1.63.666a3.47 3.47 0 002.377.921 5.788 5.788 0 002.75-.843c.261-.171.556-.291.869-.354.587.497-.964 3.497-3.335 6.488H14.87V5.291c0-.292-.256-.529-.572-.529s-.572.237-.572.529v2.645h-3.431V5.291c0-.292-.256-.529-.572-.529s-.572.237-.572.529v2.645H7.726C5.355 4.945 3.804 1.945 4.399 1.44c.306.076.596.198.858.362a5.765 5.765 0 002.747.843z"/></symbol><symbol id="icon-facebook" viewBox="0 0 32 32"><path fill="var(--color1, #f0db1d)" d="M16 .067c-8.837 0-16 7.164-16 16 0 7.925 5.768 14.489 13.332 15.76V19.405h-3.86v-4.47h3.86v-3.296c0-3.824 2.336-5.908 5.748-5.908 1.634 0 3.039.122 3.446.175v3.997l-2.367.001c-1.855 0-2.213.881-2.213 2.175v2.853h4.427l-.577 4.47h-3.849v12.531c7.916-.963 14.054-7.694 14.054-15.871 0-8.832-7.164-15.996-16-15.996z"/></symbol><symbol id="icon-gear" viewBox="0 0 31 32"><path d="M18.788 4.264a7.878 7.878 0 00-3.383.758c-.23.108-.33.387-.225.622s.378.338.608.23a6.982 6.982 0 013-.672c3.934 0 7.135 3.265 7.135 7.278 0 3.265-2.117 6.035-5.025 6.955v-2.769c1.72-.789 2.854-2.552 2.854-4.487a4.95 4.95 0 00-2.112-4.063c-.195-.136-.787-.548-1.284-.255-.486.287-.41 1.338-.409 1.354v2.672c0 .672-.507 1.236-1.16 1.296a1.295 1.295 0 01-1.16-1.296V9.216c0-.017.077-1.069-.409-1.356-.497-.293-1.089.12-1.283.255a4.944 4.944 0 00-2.112 4.063c0 1.935 1.135 3.698 2.854 4.487v2.769c-2.907-.92-5.025-3.69-5.025-6.955 0-2.095.887-4.09 2.433-5.473.191-.17.21-.467.043-.661s-.456-.215-.647-.044a8.291 8.291 0 00-2.746 6.179c0 4.531 3.612 8.218 8.052 8.218s8.052-3.686 8.052-8.218c0-4.53-3.612-8.216-8.052-8.216zm-1.194 15.394v-3.306a.469.469 0 00-.299-.44c-1.528-.578-2.555-2.078-2.555-3.733 0-1.314.64-2.543 1.711-3.288.123-.086.213-.134.274-.161l-.014 3.157c0 1.175.899 2.156 2.047 2.234a.62.62 0 00.061 0c1.148-.078 2.047-1.06 2.047-2.234l-.014-3.157c.061.027.151.075.274.161a4.004 4.004 0 011.711 3.288c0 1.655-1.027 3.155-2.555 3.733a.468.468 0 00-.299.44v3.306a7.013 7.013 0 01-2.388 0z"/><path d="M29.628 9.465h-.727a10.713 10.713 0 00-.874-2.147l.517-.526a1.448 1.448 0 00-.001-2.011l-2.21-2.253a1.375 1.375 0 00-1.97 0l-.515.526a10.343 10.343 0 00-2.106-.891v-.742C21.742.637 21.117 0 20.349 0h-3.124c-.768 0-1.394.637-1.394 1.421v.743c-.732.218-1.437.516-2.104.89l-.515-.526a1.375 1.375 0 00-1.97 0l-2.21 2.253c-.262.268-.407.625-.407 1.006s.145.738.407 1.006l.515.524a10.838 10.838 0 00-.872 2.147h-.727c-.769 0-1.394.638-1.394 1.421v3.188c0 .784.625 1.423 1.394 1.423h.727c.213.744.505 1.463.872 2.146l-.515.525c-.263.268-.407.625-.407 1.006s.145.738.407 1.006l1.051 1.071a30.69 30.69 0 00-1.72.493l-3.245 1.022a1.157 1.157 0 00-1.037-.659H1.433c-.639 0-1.159.532-1.159 1.186v6.623c0 .654.52 1.186 1.159 1.186h2.648c.498 0 .922-.323 1.086-.775l2.841.503a.461.461 0 00.53-.382.469.469 0 00-.373-.542l-2.924-.518v-5.679l3.392-1.069a25.09 25.09 0 012.218-.607c.407-.087.776-.149 1.131-.192.189-.023.375-.041.561-.054.383-.027.765-.036 1.18-.036h1.396c.845.158 1.241.827 1.194 1.414a1.06 1.06 0 01-.424.776c-.222.167-.54.276-.974.276h-1.087c-.881-.058-1.441.578-1.541 1.24-.097.639.243 1.433 1.215 1.668l.03.006 3.467.591a12.82 12.82 0 01.636.069c.594.072 1.154.141 1.83-.021l6.192-1.477.007-.001c.708-.18 1.065.149 1.163.518.105.391-.063.897-.678 1.084l-9.715 2.962a4.557 4.557 0 01-2.32.102l-3.712-.657c-.249-.044-.487.127-.53.382s.123.498.373.542l3.701.655a5.1 5.1 0 001.118.119c.465 0 1.026-.058 1.632-.242l9.715-2.963c1.139-.347 1.52-1.408 1.3-2.229-.211-.792-1.011-1.499-2.265-1.183l-6.189 1.476c-.518.124-.979.068-1.512.003a15.475 15.475 0 00-.614-.066L13.7 26.21c-.361-.092-.55-.319-.506-.609a.52.52 0 01.586-.446l.034.001h1.103c.639 0 1.141-.176 1.512-.453.226.163.502.258.799.258h3.124c.768 0 1.393-.637 1.393-1.421v-.742a10.37 10.37 0 002.106-.891l.515.526a1.375 1.375 0 001.97 0l2.21-2.254a1.448 1.448 0 00-.001-2.011l-.516-.526c.367-.681.66-1.399.874-2.145h.727c.768 0 1.394-.639 1.394-1.423v-3.188c0-.784-.625-1.422-1.394-1.422zM4.082 30.166H1.434a.249.249 0 01-.242-.248v-6.623c0-.134.111-.248.242-.248h2.648c.134 0 .242.111.242.248v6.623a.245.245 0 01-.242.248zm26.023-16.092a.482.482 0 01-.477.486h-1.077a.46.46 0 00-.444.352 9.83 9.83 0 01-1.046 2.568.476.476 0 00.07.572l.763.779a.494.494 0 01.001.686l-2.21 2.253a.47.47 0 01-.674 0l-.762-.777a.452.452 0 00-.558-.072 9.454 9.454 0 01-2.52 1.066.466.466 0 00-.345.454v1.1a.48.48 0 01-.476.484h-3.124a.457.457 0 01-.199-.045c.114-.234.18-.486.201-.736.081-1.023-.577-2.184-1.994-2.421a.462.462 0 00-.074-.006h-1.435c-.903 0-1.661.039-2.57.204l-1.473-1.502c-.089-.091-.138-.213-.138-.343s.049-.252.138-.343l.762-.778a.474.474 0 00.07-.571 9.908 9.908 0 01-1.044-2.571.46.46 0 00-.444-.352H7.949a.482.482 0 01-.477-.486v-3.188c0-.267.214-.484.477-.484h1.077a.46.46 0 00.444-.353 9.943 9.943 0 011.044-2.571.476.476 0 00-.07-.571l-.762-.777c-.089-.091-.138-.213-.138-.343s.049-.252.138-.343l2.21-2.253a.471.471 0 01.674 0l.763.778a.45.45 0 00.557.071 9.487 9.487 0 012.518-1.066.467.467 0 00.345-.454V1.42c0-.267.214-.484.477-.484h3.124a.48.48 0 01.476.484v1.101c0 .214.142.402.346.454a9.4 9.4 0 012.519 1.065c.18.109.41.08.558-.071l.762-.778a.473.473 0 01.675 0l2.209 2.252a.494.494 0 01.001.686l-.764.778a.476.476 0 00-.07.572c.468.803.82 1.668 1.046 2.571a.46.46 0 00.444.352h1.077c.263 0 .477.217.477.484v3.188z"/></symbol><symbol id="icon-instagram" viewBox="0 0 32 32"><path fill="var(--color1, #f0db1d)" d="M19.063 16a3.063 3.063 0 11-6.126 0 3.063 3.063 0 016.126 0z"/><path fill="var(--color1, #f0db1d)" d="M23.162 10.582a2.84 2.84 0 00-.687-1.056 2.84 2.84 0 00-1.056-.687c-.324-.126-.81-.275-1.706-.316-.969-.044-1.26-.054-3.713-.054s-2.744.009-3.713.053c-.896.041-1.382.191-1.706.316a2.84 2.84 0 00-1.056.687c-.305.296-.54.657-.688 1.056-.126.324-.275.81-.316 1.706-.044.969-.054 1.259-.054 3.713s.01 2.744.054 3.713c.041.896.19 1.382.316 1.706.147.399.382.76.687 1.056.296.305.657.54 1.056.687.324.126.81.276 1.706.316.969.044 1.259.053 3.712.053s2.744-.009 3.713-.053c.896-.041 1.382-.19 1.706-.316a3.042 3.042 0 001.744-1.744c.126-.324.275-.81.316-1.706.044-.969.053-1.26.053-3.713s-.009-2.744-.053-3.713c-.041-.896-.19-1.382-.316-1.706zM16 20.718a4.718 4.718 0 110-9.435 4.718 4.718 0 010 9.435zm4.904-8.52a1.103 1.103 0 110-2.206 1.103 1.103 0 010 2.206z"/><path fill="var(--color1, #f0db1d)" d="M16 0C7.165 0 0 7.165 0 16s7.165 16 16 16 16-7.165 16-16S24.835 0 16 0zm9.132 19.788c-.044.978-.2 1.646-.427 2.23a4.697 4.697 0 01-2.687 2.687c-.584.227-1.252.382-2.23.427-.98.045-1.293.055-3.788.055s-2.808-.011-3.788-.055c-.978-.045-1.646-.2-2.23-.427a4.5 4.5 0 01-1.627-1.06 4.513 4.513 0 01-1.06-1.627c-.227-.584-.383-1.252-.427-2.23-.045-.98-.056-1.293-.056-3.788s.011-2.808.055-3.788c.044-.978.2-1.646.427-2.23a4.513 4.513 0 011.06-1.627 4.5 4.5 0 011.627-1.06c.584-.227 1.252-.382 2.23-.427.98-.045 1.293-.055 3.788-.055s2.808.011 3.788.056c.978.044 1.646.2 2.23.426a4.513 4.513 0 011.627 1.06 4.513 4.513 0 011.06 1.627c.227.584.383 1.252.427 2.23.045.98.055 1.293.055 3.788s-.011 2.808-.055 3.788z"/></symbol><symbol id="icon-linkedin" viewBox="0 0 32 32"><path fill="var(--color1, #f0db1d)" d="M16 0C7.165 0 0 7.165 0 16s7.165 16 16 16 16-7.165 16-16S24.835 0 16 0zm-4.649 24.188H7.454V12.465h3.897v11.723zM9.402 10.863h-.025c-1.308 0-2.153-.9-2.153-2.025 0-1.15.872-2.026 2.205-2.026s2.153.875 2.179 2.026c0 1.125-.846 2.025-2.205 2.025zm15.999 13.325h-3.896v-6.272c0-1.576-.564-2.651-1.974-2.651-1.076 0-1.718.725-1.999 1.425-.103.25-.128.601-.128.951v6.547h-3.896s.051-10.624 0-11.723h3.896v1.66c.518-.799 1.444-1.935 3.512-1.935 2.564 0 4.486 1.676 4.486 5.276v6.722z"/></symbol><symbol id="icon-logo" viewBox="0 0 99 32"><path fill="var(--color2, #16b1bb)" d="M7.564 4.655h16.873c.964 0 1.745.781 1.745 1.745v16.873c0 .964-.781 1.745-1.745 1.745H7.564a1.745 1.745 0 01-1.745-1.745V6.4c0-.964.781-1.745 1.745-1.745z"/><path fill="var(--color3, #fff)" d="M9.338 11.636h2.889c.669 0 1.263.125 1.78.375s.919.605 1.204 1.065c.285.46.428.998.428 1.615s-.143 1.155-.428 1.615c-.285.46-.687.815-1.204 1.065s-1.111.375-1.78.375H9.338v-6.109zm2.819 4.731c.524 0 .943-.148 1.257-.445.32-.297.48-.707.48-1.231s-.16-.934-.48-1.231c-.314-.297-.733-.445-1.257-.445h-1.091v3.351h1.091zm10.204-4.731v6.109h-1.423l-2.697-3.255v3.255h-1.693v-6.109h1.423l2.697 3.255v-3.255h1.693z"/><path fill="var(--color4, #1b393a)" d="M34.769 12.876v1.396h-.541v-.89h-3.351l-.006.89h-.541l.006-1.396h.198c.256-.015.436-.217.541-.605.105-.392.169-.943.192-1.652l.041-1.309h2.863v3.567h.599zm-2.99-2.205a9.269 9.269 0 01-.14 1.425c-.07.376-.184.636-.343.78h2.298v-3.06h-1.786l-.029.855zm3.867-.373h.559v2.246l1.891-2.246h.506v3.084h-.559v-2.246l-1.885 2.246h-.512v-3.084zm5.833 1.478c.206.054.364.142.477.262s.169.27.169.448a.73.73 0 01-.186.489c-.124.14-.297.25-.518.332a2.16 2.16 0 01-.733.116c-.229 0-.454-.029-.675-.087a2.088 2.088 0 01-.582-.262l.169-.425c.148.093.316.167.506.221.19.05.382.076.576.076.264 0 .473-.045.628-.134.159-.093.239-.217.239-.372a.369.369 0 00-.192-.332c-.124-.078-.3-.116-.529-.116h-.564v-.401h.524c.209 0 .374-.037.495-.111s.18-.175.18-.303c0-.14-.072-.248-.215-.326-.14-.078-.33-.116-.57-.116-.306 0-.63.079-.972.239l-.151-.431c.376-.19.77-.285 1.181-.285.248 0 .471.035.669.105s.353.169.465.297a.64.64 0 01.018.843.933.933 0 01-.407.273zm2.769-1.507c.427 0 .753.105.977.314.229.209.343.522.343.937v1.862h-.529v-.407a.906.906 0 01-.401.332 1.53 1.53 0 01-.611.111c-.345 0-.623-.083-.832-.25-.206-.167-.308-.386-.308-.657s.099-.489.297-.652c.198-.167.512-.25.943-.25h.884v-.111c0-.241-.07-.425-.209-.553s-.345-.192-.617-.192c-.182 0-.361.031-.535.093a1.325 1.325 0 00-.442.239l-.233-.419a1.65 1.65 0 01.57-.291 2.32 2.32 0 01.704-.105zm-.128 2.717c.213 0 .398-.047.553-.14a.828.828 0 00.337-.407v-.431h-.861c-.473 0-.71.159-.71.477 0 .155.06.277.18.367s.287.134.5.134zm2.629-2.688h.559v2.246l1.891-2.246h.506v3.084h-.559v-2.246l-1.885 2.246h-.512v-3.084zm1.443-.401c-.287 0-.51-.068-.669-.204-.159-.14-.24-.339-.244-.599h.378c.004.143.052.26.145.349.097.085.225.128.384.128s.287-.043.384-.128a.467.467 0 00.151-.349h.39c-.004.26-.087.46-.25.599-.163.136-.386.204-.669.204zm2.772.401h.559v1.309h1.757v-1.309h.559v3.084h-.559V12.09h-1.757v1.292h-.559v-3.084zm4.262 2.322c.109 0 .198.039.268.116a.378.378 0 01.111.279.638.638 0 01-.023.169 2.457 2.457 0 01-.076.25l-.273.809h-.367l.215-.867a.383.383 0 01-.18-.134.415.415 0 01-.064-.227.378.378 0 01.39-.396zm4.737-2.351c.298 0 .566.066.803.198s.421.316.553.553c.136.237.204.51.204.82s-.068.586-.204.826c-.132.237-.316.421-.553.553s-.504.198-.803.198c-.221 0-.425-.043-.611-.128a1.267 1.267 0 01-.465-.372v1.594h-.559v-4.212h.535v.489c.124-.171.281-.299.471-.384.19-.089.399-.134.628-.134zm-.046 2.659a.981.981 0 00.901-.518c.093-.167.14-.357.14-.57s-.047-.401-.14-.564a.937.937 0 00-.372-.384 1.045 1.045 0 00-.529-.134 1.025 1.025 0 00-.901.518c-.089.163-.134.351-.134.564s.044.403.134.57a.981.981 0 00.901.518zm3.663-2.659c.426 0 .752.105.977.314.229.209.343.522.343.937v1.862h-.529v-.407a.906.906 0 01-.401.332 1.53 1.53 0 01-.611.111c-.345 0-.623-.083-.832-.25-.206-.167-.308-.386-.308-.657s.099-.489.297-.652c.198-.167.512-.25.943-.25h.884v-.111c0-.241-.07-.425-.209-.553s-.345-.192-.617-.192c-.182 0-.361.031-.535.093a1.325 1.325 0 00-.442.239l-.233-.419a1.65 1.65 0 01.57-.291 2.32 2.32 0 01.704-.105zm-.128 2.717c.213 0 .397-.047.553-.14a.828.828 0 00.337-.407v-.431h-.861c-.473 0-.71.159-.71.477 0 .155.06.277.18.367s.287.134.5.134zm4.248-1.21c.206.054.365.142.477.262s.169.27.169.448a.73.73 0 01-.186.489c-.124.14-.297.25-.518.332a2.156 2.156 0 01-.733.116c-.229 0-.454-.029-.675-.087a2.088 2.088 0 01-.582-.262l.169-.425c.147.093.316.167.506.221.19.05.382.076.576.076.264 0 .473-.045.628-.134.159-.093.239-.217.239-.372a.369.369 0 00-.192-.332c-.124-.078-.3-.116-.529-.116h-.564v-.401h.524c.209 0 .374-.037.495-.111s.18-.175.18-.303c0-.14-.072-.248-.215-.326-.14-.078-.33-.116-.57-.116-.306 0-.63.079-.972.239l-.151-.431c.376-.19.77-.285 1.181-.285.248 0 .471.035.669.105s.353.169.465.297a.64.64 0 01.018.843.94.94 0 01-.407.273zm3.304-1.507c.299 0 .566.066.803.198s.421.316.553.553c.136.237.204.51.204.82s-.068.586-.204.826c-.132.237-.316.421-.553.553s-.504.198-.803.198c-.221 0-.425-.043-.611-.128a1.267 1.267 0 01-.465-.372v1.594h-.559v-4.212h.535v.489c.124-.171.281-.299.471-.384.19-.089.399-.134.628-.134zm-.047 2.659a.981.981 0 00.901-.518c.093-.167.14-.357.14-.57s-.047-.401-.14-.564a.93.93 0 00-.372-.384 1.045 1.045 0 00-.529-.134 1.028 1.028 0 00-.901.518c-.089.163-.134.351-.134.564s.044.403.134.57a.981.981 0 00.901.518zm3.664-2.659c.427 0 .753.105.977.314.229.209.343.522.343.937v1.862h-.529v-.407a.906.906 0 01-.401.332 1.53 1.53 0 01-.611.111c-.345 0-.623-.083-.832-.25-.206-.167-.308-.386-.308-.657s.099-.489.297-.652c.198-.167.512-.25.943-.25h.884v-.111c0-.241-.07-.425-.209-.553s-.345-.192-.617-.192c-.182 0-.361.031-.535.093a1.325 1.325 0 00-.442.239l-.233-.419a1.65 1.65 0 01.57-.291 2.32 2.32 0 01.704-.105zm-.128 2.717c.213 0 .398-.047.553-.14a.828.828 0 00.337-.407v-.431h-.861c-.473 0-.71.159-.71.477 0 .155.06.277.18.367s.287.134.5.134zm4.199-2.583c.287 0 .543.064.768.192s.4.306.524.535c.128.225.192.483.192.774 0 .299-.068.564-.204.797-.132.229-.32.407-.564.535a1.73 1.73 0 01-.826.192c-.524 0-.929-.178-1.216-.535-.283-.361-.425-.867-.425-1.519 0-.632.13-1.127.39-1.484.26-.361.657-.599 1.193-.716l1.408-.314.081.512-1.297.279c-.403.089-.704.241-.902.454s-.31.52-.337.919c.132-.198.303-.351.512-.46s.444-.163.704-.163zm-.099 2.56c.198 0 .372-.045.524-.134a.937.937 0 00.361-.367c.086-.159.128-.339.128-.541 0-.306-.093-.553-.279-.739s-.431-.279-.733-.279c-.303 0-.549.093-.739.279-.186.186-.279.432-.279.739 0 .202.043.382.128.541.089.155.212.277.367.367s.33.134.524.134zm3.876.454c-.306 0-.582-.068-.826-.204s-.436-.322-.576-.559c-.136-.241-.204-.512-.204-.815s.068-.572.204-.809c.14-.241.332-.427.576-.559.244-.136.52-.204.826-.204s.58.068.82.204c.244.132.435.318.57.559.14.237.209.506.209.809s-.07.574-.209.815a1.466 1.466 0 01-.57.559c-.24.136-.514.204-.82.204zm0-.489a.981.981 0 00.901-.518c.089-.167.134-.357.134-.57s-.044-.401-.134-.564a.93.93 0 00-.372-.384c-.155-.089-.332-.134-.529-.134s-.376.045-.535.134a.983.983 0 00-.372.384c-.089.163-.134.351-.134.564s.045.403.134.57c.093.163.217.291.372.384.159.089.337.134.535.134zm4.766-2.141h-1.129v2.595h-.559v-2.595h-1.129v-.489h2.816v.489zm1.944 1.292h-.64v1.303h-.559v-3.084h.559v1.303h.652l1.001-1.303h.599l-1.169 1.484 1.251 1.6h-.657l-1.036-1.303zm3.496-1.81c.427 0 .753.105.977.314.229.209.343.522.343.937v1.862h-.529v-.407a.906.906 0 01-.401.332c-.17.074-.374.111-.611.111-.345 0-.623-.083-.832-.25-.205-.167-.308-.386-.308-.657s.099-.489.297-.652c.198-.167.512-.25.943-.25h.884v-.111c0-.241-.07-.425-.209-.553s-.345-.192-.617-.192c-.182 0-.361.031-.535.093a1.325 1.325 0 00-.442.239l-.233-.419a1.65 1.65 0 01.57-.291 2.32 2.32 0 01.704-.105zm-.128 2.717c.214 0 .398-.047.553-.14a.828.828 0 00.337-.407v-.431h-.861c-.473 0-.71.159-.71.477 0 .155.06.277.18.367s.287.134.5.134zM30.796 17.28h.559v2.246l1.891-2.246h.506v3.084h-.559v-2.246l-1.885 2.246h-.512V17.28zm8.808 0v3.084h-.559v-2.595h-1.74v2.595h-.559V17.28h2.857zm2.576 3.119c-.306 0-.582-.068-.826-.204s-.436-.322-.576-.559c-.136-.241-.204-.512-.204-.815s.068-.572.204-.809c.14-.241.332-.427.576-.559.244-.136.52-.204.826-.204s.58.068.82.204c.244.132.434.318.57.559.14.237.209.506.209.809s-.07.574-.209.815a1.466 1.466 0 01-.57.559 1.638 1.638 0 01-.82.204zm0-.489a.981.981 0 00.901-.518c.089-.167.134-.357.134-.57s-.044-.401-.134-.564a.93.93 0 00-.372-.384c-.155-.089-.332-.134-.529-.134s-.376.045-.535.134a.983.983 0 00-.372.384c-.089.163-.134.351-.134.564s.044.403.134.57c.093.163.217.291.372.384.159.089.337.134.535.134zm5.694-.035v1.204h-.524v-.716h-2.577v.716h-.529v-1.204h.163c.198-.012.334-.151.407-.419s.124-.646.151-1.135l.047-1.041h2.391v2.595h.471zm-2.397-1.513c-.015.388-.048.71-.099.966-.047.252-.134.434-.262.547h1.728v-2.106h-1.338l-.029.593zm6.435 1.513v1.204h-.524v-.716h-2.577v.716h-.529v-1.204h.163c.198-.012.333-.151.407-.419s.124-.646.151-1.135l.047-1.041h2.391v2.595h.471zm-2.397-1.513c-.016.388-.049.71-.099.966-.047.252-.134.434-.262.547h1.728v-2.106h-1.338l-.029.593zm6.086.477c0 .043-.004.099-.012.169h-2.502a.981.981 0 00.355.657c.206.163.46.244.762.244.369 0 .665-.124.89-.372l.308.361c-.14.163-.314.287-.524.372a1.796 1.796 0 01-.692.128c-.326 0-.615-.066-.867-.198a1.479 1.479 0 01-.588-.564 1.627 1.627 0 01-.204-.815c0-.299.066-.568.198-.809.136-.241.32-.427.553-.559.236-.136.502-.204.797-.204s.556.068.785.204c.233.132.413.318.541.559.132.241.198.516.198.826zm-1.524-1.117a.976.976 0 00-.675.244.992.992 0 00-.314.64h1.978a.975.975 0 00-.32-.634.94.94 0 00-.669-.25zm4.2-.471c.299 0 .566.066.803.198s.421.316.553.553c.136.237.204.51.204.82s-.068.586-.204.826c-.132.237-.316.421-.553.553s-.504.198-.803.198c-.221 0-.425-.043-.611-.128a1.267 1.267 0 01-.465-.372v1.594h-.559v-4.212h.535v.489c.124-.171.281-.299.471-.384.19-.089.4-.134.628-.134zm-.046 2.659a.981.981 0 00.901-.518c.093-.167.14-.357.14-.57s-.047-.401-.14-.564a.93.93 0 00-.372-.384 1.045 1.045 0 00-.529-.134 1.028 1.028 0 00-.901.518c-.089.163-.134.351-.134.564s.045.403.134.57a.988.988 0 00.372.384c.159.089.336.134.529.134zm5.294-.85h-.599v1.303h-.559V19.06h-.599l-.849 1.303h-.663l1.059-1.594-.977-1.489h.593l.832 1.303h.605V17.28h.559v1.303h.605l.832-1.303h.599l-.977 1.495 1.059 1.588h-.663l-.855-1.303zm3.506 0h-.64v1.303h-.559v-3.084h.559v1.303h.652l1.001-1.303h.599l-1.169 1.484 1.251 1.6h-.657l-1.036-1.303zm3.496-1.809c.427 0 .753.105.977.314.229.209.343.522.343.937v1.862h-.529v-.407a.906.906 0 01-.401.332 1.53 1.53 0 01-.611.111c-.345 0-.623-.083-.832-.25-.206-.167-.308-.386-.308-.657s.099-.489.297-.652c.198-.167.512-.25.943-.25h.884v-.111c0-.241-.07-.425-.209-.553s-.345-.192-.617-.192c-.182 0-.361.031-.535.093a1.325 1.325 0 00-.442.239l-.233-.419a1.65 1.65 0 01.57-.291 2.32 2.32 0 01.704-.105zm-.128 2.717c.213 0 .398-.047.553-.14a.828.828 0 00.337-.407v-.431h-.861c-.473 0-.71.159-.71.477 0 .155.06.277.18.367s.287.134.5.134zm5.71.431a1.73 1.73 0 01-.844-.204 1.51 1.51 0 01-.785-1.374c0-.303.07-.572.209-.809.14-.241.332-.427.576-.559.248-.136.529-.204.844-.204.279 0 .528.056.745.169.221.113.392.275.512.489l-.425.273a.953.953 0 00-.838-.443c-.202 0-.384.045-.547.134a.97.97 0 00-.378.384 1.158 1.158 0 00-.134.564c0 .217.045.409.134.576a.98.98 0 00.378.378c.163.089.345.134.547.134.175 0 .334-.037.477-.111s.264-.184.361-.332l.425.268a1.24 1.24 0 01-.512.495 1.588 1.588 0 01-.745.169zm3.254-3.148c.427 0 .753.105.977.314.229.209.343.522.343.937v1.862h-.529v-.407a.906.906 0 01-.401.332 1.53 1.53 0 01-.611.111c-.345 0-.623-.083-.832-.25-.206-.167-.308-.386-.308-.657s.099-.489.297-.652c.198-.167.512-.25.943-.25h.884v-.111c0-.241-.07-.425-.209-.553s-.345-.192-.617-.192c-.182 0-.361.031-.535.093a1.325 1.325 0 00-.442.239l-.233-.419a1.65 1.65 0 01.57-.291 2.32 2.32 0 01.704-.105zm-.128 2.717c.213 0 .398-.047.553-.14a.828.828 0 00.337-.407v-.431h-.861c-.473 0-.71.159-.71.477 0 .155.06.277.18.367s.287.134.5.134zm2.629-2.688h.559v2.246l1.891-2.246h.506v3.084h-.559v-2.246l-1.885 2.246h-.512V17.28zm1.443-.401c-.287 0-.51-.068-.669-.204-.159-.14-.24-.339-.244-.599h.378c.004.143.052.26.145.349.097.085.225.128.384.128s.287-.043.384-.128a.471.471 0 00.151-.349h.39c-.004.26-.087.46-.25.599-.163.136-.386.204-.669.204zm5.07.89h-1.129v2.595h-.559v-2.595H85.56v-.489h2.816v.489zm1.93 2.63c-.307 0-.582-.068-.826-.204s-.436-.322-.576-.559c-.136-.241-.204-.512-.204-.815s.068-.572.204-.809c.14-.241.332-.427.576-.559.244-.136.52-.204.826-.204s.58.068.82.204c.244.132.434.318.57.559.14.237.209.506.209.809s-.07.574-.209.815a1.466 1.466 0 01-.57.559 1.638 1.638 0 01-.82.204zm0-.489a.981.981 0 00.901-.518c.089-.167.134-.357.134-.57s-.045-.401-.134-.564a.937.937 0 00-.372-.384c-.155-.089-.332-.134-.529-.134s-.376.045-.535.134a.983.983 0 00-.372.384c-.089.163-.134.351-.134.564s.044.403.134.57c.093.163.217.291.372.384.159.089.337.134.535.134zm4.681-1.146c.4.101.599.351.599.751a.728.728 0 01-.308.628c-.202.147-.504.221-.908.221h-1.484V17.28h1.431c.365 0 .65.07.855.209.206.136.308.33.308.582a.688.688 0 01-.134.425.801.801 0 01-.361.268zm-1.553-.157h.838c.214 0 .374-.039.483-.116a.384.384 0 00.169-.337c0-.295-.217-.442-.652-.442h-.838v.896zm.896 1.326c.233 0 .407-.037.524-.111s.175-.188.175-.343c0-.159-.054-.277-.163-.355-.105-.078-.271-.116-.5-.116h-.931v.925h.896z"/></symbol><symbol id="icon-mail" viewBox="0 0 32 32"><path d="M29.188 4.75H2.813A2.817 2.817 0 000 7.563v16.875a2.817 2.817 0 002.813 2.812h26.375A2.815 2.815 0 0032 24.438V7.563a2.816 2.816 0 00-2.812-2.813zm-.394 1.875L17.989 17.373c-.531.531-1.238.824-1.989.824s-1.457-.293-1.99-.826L3.207 6.625h25.587zM1.875 24.056V7.945l8.102 8.06-8.102 8.051zm1.333 1.319l8.099-8.048 1.379 1.371c.885.885 2.063 1.373 3.315 1.373s2.429-.488 3.313-1.371l1.38-1.373 8.099 8.048H3.208zm26.917-1.319l-8.102-8.051 8.102-8.06v16.111z"/></symbol><symbol id="icon-man-shield" viewBox="0 0 32 32"><path d="M12.933 0c-1.766 0-3.202 1.436-3.202 3.202s1.436 3.202 3.202 3.202 3.202-1.436 3.202-3.202S14.699 0 12.933 0zm0 5.466c-1.249 0-2.264-1.016-2.264-2.264S11.685.938 12.933.938c1.249 0 2.264 1.016 2.264 2.264s-1.016 2.264-2.264 2.264zm12.005 14.051a.47.47 0 00-.663.006l-3.935 4.013-1.389-1.454a.47.47 0 00-.678.648l1.724 1.804a.47.47 0 00.674.004l4.274-4.358a.47.47 0 00-.006-.663zm2.586 3.133a.468.468 0 00-.551.368c-.538 2.705-2.446 5.015-4.981 6.031a.47.47 0 00.349.871c2.918-1.169 4.964-3.763 5.552-6.718a.468.468 0 00-.368-.551z"/><path d="M26.719 15.422c-1.254.708-2.437.732-3.516.07-.858-.526-1.338-1.297-1.358-1.328a.9.9 0 00-.728-.432 12.98 12.98 0 00-3.424-5.148 3.763 3.763 0 00-2.556-.999h-4.409a3.958 3.958 0 00-2.715 1.072c-1.519 1.423-4.07 4.533-4.085 9.364-.003 1.013.801 1.86 1.793 1.887a1.844 1.844 0 001.897-1.844c0-1.813.509-3.52 1.484-5.005V30.37c0 .897.73 1.626 1.626 1.626h1.047c.453 0 .863-.186 1.158-.485.295.299.705.485 1.158.485h1.047c.897 0 1.626-.73 1.626-1.626v-2.471a9.031 9.031 0 003.041 2.016.47.47 0 00.349-.871c-3.018-1.209-5.141-4.207-5.141-7.67v-5.11c1.898 1.051 3.735.795 5.237-.606a4.96 4.96 0 00.824-.963 5.482 5.482 0 001.641 1.596c.949.582 2.483 1.046 4.42-.027v4.653a.469.469 0 00.938 0V16.21a.906.906 0 00-1.352-.789zM13.758 8.524l-.561.667a.344.344 0 01-.526 0l-.561-.667h1.649zm3.006 7.405v-2.748c.54.848.927 1.762 1.156 2.732a2.936 2.936 0 01-1.156.016zm2.037-.36c-.377-1.505-1.098-2.883-2.151-4.106a.47.47 0 00-.824.306v3.857c-.202-.092-.455-.233-.462-.236a.906.906 0 00-1.29.82v5.164c0 1.962.607 3.839 1.752 5.423v3.573a.69.69 0 01-.689.689H14.09a.69.69 0 01-.689-.689v-9.634a.469.469 0 00-.938 0v9.634a.69.69 0 01-.689.689h-1.047a.69.69 0 01-.689-.689V11.676a.469.469 0 00-.82-.31 9.986 9.986 0 00-2.539 6.699.907.907 0 01-.933.907c-.487-.013-.883-.438-.881-.947.014-4.48 2.379-7.363 3.788-8.683a3.022 3.022 0 012.074-.819h.154l1.07 1.271a1.281 1.281 0 001.96 0l1.07-1.271h.154a2.83 2.83 0 011.921.751 12.026 12.026 0 013.226 4.913 4.505 4.505 0 01-1.483 1.381z"/></symbol><symbol id="icon-okay" viewBox="0 0 32 32"><path fill="var(--color1, #f0db1d)" d="M11 2.5V16a1.503 1.503 0 001.5 1.5h7A1.503 1.503 0 0021 16V2.5A1.503 1.503 0 0019.5 1h-7A1.503 1.503 0 0011 2.5zM20 16a.498.498 0 01-.5.5h-7a.498.498 0 01-.5-.5v-1.5h8V16zm0-2.5h-8V4h8v9.5zm0-11V3h-8v-.5a.498.498 0 01.5-.5h7a.498.498 0 01.5.5z"/><path fill="var(--color1, #f0db1d)" d="M13.146 10.353l1.5 1.5a.5.5 0 00.763-.065l3.5-5-.819-.573-3.158 4.509-1.079-1.078-.707.707zM30.5 19H29v-.5a.498.498 0 00-.5-.5h-3a.498.498 0 00-.5.5V20h-1.919l-4.423-1.474a.498.498 0 00-.158-.026H12a.504.504 0 00-.354.146l-.853.854H7v-1a.498.498 0 00-.5-.5h-3a.498.498 0 00-.5.5v.5H1.5a.498.498 0 00-.5.5v8a.498.498 0 00.5.5H3v.5a.498.498 0 00.5.5h3a.498.498 0 00.5-.5v-1h3.293l3.353 3.354A.5.5 0 0014 31h3a.5.5 0 00.353-.853l-.147-.146h1.793a.5.5 0 00.353-.853l-.147-.146h1.793a.5.5 0 00.353-.853l-.147-.146h1.793a.5.5 0 00.353-.853l-.147-.146h1.793v1.5a.498.498 0 00.5.5h3a.498.498 0 00.5-.5v-.5h1.5a.498.498 0 00.5-.5v-8a.498.498 0 00-.5-.5zM3 27H2v-7h1v7zm3 1H4v-9h2v9zm19-2h-2.793l-1.853-1.854-.707.707 2.147 2.146h-1.586l-2.853-2.854-.707.707 3.147 3.146h-1.586l-2.853-2.854-.707.707 3.147 3.146H16.21l-2.853-2.854-.707.707 3.147 3.146h-1.586l-3.353-3.354a.5.5 0 00-.354-.146h-3.5v-6h2.793l-2.646 2.646a.498.498 0 00.075.769.5.5 0 00.278.084h4c.133 0 .26-.053.354-.146l1.853-1.854h3.126l1.867 1.4.6-.8-2-1.5a.5.5 0 00-.3-.1h-3.5a.504.504 0 00-.354.146l-1.853 1.854H8.711l3.5-3.5h6.212l4.423 1.474a.498.498 0 00.158.026h2v5zm3 2h-2v-9h2v9zm2-1h-1v-7h1v7zM14 5h-1v1h1V5z"/></symbol><symbol id="icon-shield" viewBox="0 0 33 32"><path d="M5.463 14.238a.475.475 0 00-.479.471v.852c0 3.516 1.62 6.769 4.444 8.925l4.528 3.456a.934.934 0 001.136 0l3.542-2.703c.209-.16.247-.456.085-.662s-.463-.243-.673-.083l-3.522 2.689-4.508-3.441c-2.589-1.976-4.073-4.957-4.073-8.18v-.852a.475.475 0 00-.479-.471zm9.061 14.535c-.363 0-.657.289-.657.646s.294.646.657.646c.363 0 .657-.289.657-.646s-.294-.646-.657-.646zm0-26.23c-.363 0-.657.289-.657.646s.294.646.657.646c.363 0 .657-.289.657-.646s-.294-.646-.657-.646zm9.892 4.451c0 .357.294.646.657.646s.657-.289.657-.646c0-.357-.294-.646-.657-.646s-.657.289-.657.646zm-21.177 0c0 .357.294.646.657.646s.657-.289.657-.646c0-.357-.294-.646-.657-.646s-.657.289-.657.646z"/><path d="M30.31 28.909V17.473c.561-.259.95-.82.95-1.469 0-.894-.74-1.622-1.649-1.622h-5.546V8.657a.915.915 0 00-.821-.905c-1.827-.203-3.53-.584-5.059-1.133a14.618 14.618 0 01-2.76-1.307 1.72 1.72 0 00-1.8 0c-.805.499-1.734.939-2.76 1.307-1.53.549-3.232.93-5.059 1.133a.915.915 0 00-.821.905v3.822c0 .26.215.471.479.471s.479-.211.479-.471V8.685c1.892-.212 3.658-.609 5.251-1.181 1.09-.391 2.08-.86 2.942-1.395a.731.731 0 01.777 0 15.538 15.538 0 002.942 1.395c1.593.572 3.359.969 5.251 1.181v5.696h-2.569c-.909 0-1.649.728-1.649 1.622 0 .651.392 1.214.957 1.472v10.261l-3.582 2.734a2.878 2.878 0 01-1.738.586 2.836 2.836 0 01-1.738-.586l-5.113-3.903c-1.683-1.285-3.069-2.959-4.006-4.842s-1.433-3.985-1.433-6.081V5.369c0-.12.1-.219.222-.22l1.554-.011c5.312-.038 7.898-1.807 8.966-2.858a9.56 9.56 0 00.899-1.018.813.813 0 01.652-.321h.002a.807.807 0 01.647.321c.273.361.573.703.893 1.018.86.846 3.456 2.819 8.966 2.858l1.554.011c.122.001.222.1.222.22v7.089c0 .26.215.471.479.471s.479-.211.479-.471V5.369c0-.637-.527-1.158-1.174-1.163l-1.554-.011c-5.155-.037-7.519-1.818-8.296-2.582a8.327 8.327 0 01-.802-.914 1.761 1.761 0 00-1.414-.701h-.004c-.563 0-1.08.254-1.418.697-.244.32-.517.629-.811.917-.965.949-3.326 2.546-8.296 2.582l-1.554.011a1.176 1.176 0 00-1.174 1.163v10.275c0 2.239.529 4.485 1.53 6.496s2.481 3.799 4.279 5.172l5.113 3.903c.662.505 1.488.784 2.325.784s1.663-.278 2.325-.784l2.362-1.803c-.203.27-.324.603-.324.964 0 .895.74 1.622 1.649 1.622h9.074c.909 0 1.649-.728 1.649-1.622 0-.649-.39-1.21-.95-1.469zm-9.507-5.461c.405-.406.778-.842 1.114-1.302.346.412.75.76 1.191 1.013-1.126.646-2.011 1.908-2.305 3.296v-3.007zm0-3.584c.107.506.293.995.541 1.444-.169.248-.35.489-.541.723v-2.167zm.853 7.578c0-1.679 1.184-3.389 2.585-3.734.256-.063.435-.289.435-.549s-.179-.486-.435-.549c-1.401-.345-2.585-2.055-2.585-3.734v-1.251h6.835v1.251c0 1.679-1.184 3.389-2.585 3.734-.256.063-.435.288-.435.549s.179.486.435.549c1.401.345 2.585 2.055 2.585 3.734v1.314h-6.835v-1.314zm7.695-.955c-.287-1.401-1.176-2.676-2.311-3.328 1.135-.651 2.024-1.927 2.311-3.328v6.655zm-8.814-11.162h9.074c.381 0 .691.305.691.679s-.31.679-.691.679h-9.074c-.381 0-.691-.305-.691-.679s.31-.679.691-.679zm9.074 15.732h-9.074c-.381 0-.691-.305-.691-.679s.31-.679.691-.679h9.074c.381 0 .691.305.691.679s-.31.679-.691.679z"/><path d="M12.328 19.942h.007c.443 0 .855-.196 1.129-.539l6.059-7.563a1.395 1.395 0 00-.239-1.986c-.302-.234-.678-.338-1.059-.294s-.723.232-.96.529l-4.914 6.133-2.234-2.87a1.456 1.456 0 00-2.016-.263 1.398 1.398 0 00-.267 1.983l3.36 4.315c.272.349.684.551 1.135.554zM8.5 14.151a.464.464 0 01.184-.312.485.485 0 01.672.088l2.61 3.351a.484.484 0 00.757.005l5.296-6.609a.485.485 0 01.673-.078.465.465 0 01.079.662l-6.059 7.563a.48.48 0 01-.376.18h-.003a.476.476 0 01-.377-.185l-3.36-4.315a.467.467 0 01-.095-.349z"/></symbol></defs></svg>